<?xml version="1.0" standalone="no"?><!DOCTYPE svg PUBLIC "-//W3C//DTD SVG 1.1//EN" "http://www.w3.org/Graphics/SVG/1.1/DTD/svg11.dtd"><svg t="1714662612127" class="icon" viewBox="0 0 1024 1024" version="1.1" xmlns="http://www.w3.org/2000/svg" p-id="45471" xmlns:xlink="http://www.w3.org/1999/xlink" width="16" height="16"><path d="M513.6 245.12c11.2 0 24 1.664 36.8 3.328 35.2 4.864 70.4 17.92 102.4 37.504 30.016 19.2 56.064 44.16 76.8 73.472a297.533 297.533 0 0 1 43.2 101.12c8 39.232 8 80-1.6 119.168a279.68 279.68 0 0 1-44.8 99.584c-6.4 8.128-12.8 14.72-19.2 22.848l-6.4 8.128s-1.6 0-1.6 1.664c-24 29.376-35.2 58.752-35.2 89.728a130.368 130.368 0 0 0 67.2 114.24c-23.36 13.504-48 24.448-73.6 32.64a155.392 155.392 0 0 1-25.6 8.192 172.864 172.864 0 0 1-40-40.832c-16-24.448-36.8-62.016-35.2-114.24 0-30.976 6.4-60.352 17.6-89.728 11.392-28.288 27.648-54.272 48-76.736l1.6-1.6c8.704-8.768 16.256-18.624 22.4-29.44 8-12.992 14.4-27.712 17.6-42.368 6.4-22.848 6.4-47.36 1.6-70.208a156.416 156.416 0 0 0-25.6-60.352 145.664 145.664 0 0 0-44.8-44.096 162.176 162.176 0 0 0-60.8-22.848c-8 0-14.4-1.6-22.4-1.6h-3.2c-8 0-16 0-22.4 1.6a162.176 162.176 0 0 0-60.8 22.848 145.472 145.472 0 0 0-44.8 44.096c-12.8 17.92-20.8 39.168-25.6 60.352-4.8 22.848-3.2 47.36 1.6 70.208 3.2 14.72 9.6 29.376 17.6 42.432 6.4 9.792 14.4 19.584 22.4 29.376l4.8 4.864c20.352 22.4 36.608 48.448 48 76.736 11.2 27.712 16 58.752 17.6 89.728A188.16 188.16 0 0 1 392 960c-8-3.264-17.6-4.928-25.6-8.192a422.08 422.08 0 0 1-73.6-32.64 130.368 130.368 0 0 0 67.2-114.24c0-30.976-11.2-62.016-35.2-89.728l-1.6-1.664-6.4-8.128c-6.4-8.192-12.8-14.72-19.2-22.848a279.68 279.68 0 0 1-44.8-99.584 272.192 272.192 0 0 1-1.6-119.104 297.216 297.216 0 0 1 43.2-101.184 277.12 277.12 0 0 1 76.8-73.472 250.688 250.688 0 0 1 102.4-37.504 256.64 256.64 0 0 1 36.8-3.328v-3.2z m0-181.12c59.2 0 118.4 11.456 172.8 35.904a455.68 455.68 0 0 1 142.4 97.92 456.96 456.96 0 0 1 96 145.28c24 57.088 35.2 115.84 35.2 177.92 0 35.84-3.2 70.144-11.2 104.384-8 34.304-19.2 65.28-33.6 96.32a497.152 497.152 0 0 1-120 153.408c-32-17.92-49.6-37.568-54.4-58.752-4.8-21.248 4.8-44.096 27.2-70.208a347.456 347.456 0 0 0 83.2-226.816c0-189.312-152-344.32-337.6-344.32h-3.2c-185.6 0-337.6 155.008-337.6 344.32 0 83.2 30.4 164.8 83.2 226.816 22.4 26.112 30.4 48.96 27.2 68.544-4.8 21.248-22.4 40.832-54.4 58.752-49.6-40.768-92.8-97.92-120-153.408a528.064 528.064 0 0 1-33.6-96.256A453.952 453.952 0 0 1 64 519.36c0-60.416 11.2-120.768 33.6-176.256a465.92 465.92 0 0 1 96-145.28A446.976 446.976 0 0 1 336 99.904 428.224 428.224 0 0 1 510.4 64zM512 434.496c23.36-0.064 45.76 9.344 62.272 26.24 16.512 16.832 25.792 39.68 25.728 63.488 0 48.96-40 89.792-88 89.792s-88-40.832-88-89.856 40-89.6 88-89.6z" fill="#bfbfbf" p-id="45472"></path></svg>