<?xml version="1.0" standalone="no"?><!DOCTYPE svg PUBLIC "-//W3C//DTD SVG 1.1//EN" "http://www.w3.org/Graphics/SVG/1.1/DTD/svg11.dtd"><svg t="1714661114054" class="icon" viewBox="0 0 1024 1024" version="1.1" xmlns="http://www.w3.org/2000/svg" p-id="7479" xmlns:xlink="http://www.w3.org/1999/xlink" width="16" height="16"><path d="M704 446.016H320a8 8 0 0 0-8 8v401.984c0 4.416 3.584 8 8 8h384a8 8 0 0 0 8-8V454.016A8 8 0 0 0 704 446.016z m-328 64h272v116.992h-272V510.016z m272 289.984h-272v-116.992h272V800z" fill="#bfbfbf" p-id="7480"></path><path d="M424 748.032a32 32 0 1 0 64 0 32 32 0 0 0-64 0zM424 569.984a32 32 0 1 0 64 0 32 32 0 0 0-64 0z" fill="#bfbfbf" p-id="7481"></path><path d="M811.392 368.896a320.128 320.128 0 0 0-299.2-206.912 320 320 0 0 0-299.2 206.848A200.32 200.32 0 0 0 64 563.584c0.64 104.448 81.6 189.312 183.616 198.4a8 8 0 0 0 8.704-8v-60.416a8 8 0 0 0-7.04-7.872 124.736 124.736 0 0 1-72.064-34.496 123.264 123.264 0 0 1-37.248-88.576A124.544 124.544 0 0 1 232.32 442.496l37.952-9.984 13.888-36.736a246.08 246.08 0 0 1 88.128-113.472 242.112 242.112 0 0 1 139.968-44.16 243.776 243.776 0 0 1 192.384 94.272c15.104 19.264 27.136 40.704 35.712 63.488l13.824 36.608 37.76 9.984a124.16 124.16 0 0 1-16.96 243.136 7.872 7.872 0 0 0-6.912 7.872v60.48c0 4.736 4.096 8.384 8.768 8 101.76-9.216 182.528-94.016 183.232-198.208a200.32 200.32 0 0 0-148.608-194.88z" fill="#bfbfbf" p-id="7482"></path></svg>