<?xml version="1.0" standalone="no"?><!DOCTYPE svg PUBLIC "-//W3C//DTD SVG 1.1//EN" "http://www.w3.org/Graphics/SVG/1.1/DTD/svg11.dtd"><svg t="1714661790812" class="icon" viewBox="0 0 1024 1024" version="1.1" xmlns="http://www.w3.org/2000/svg" p-id="19585" xmlns:xlink="http://www.w3.org/1999/xlink" width="16" height="16"><path d="M528.896 419.84H481.28v65.024h47.616c10.24 0 20.48-13.824 20.48-30.72 0-17.408-10.24-34.304-20.48-34.304z" fill="#bfbfbf" p-id="19586"></path><path d="M1007.104 443.904c10.24 0 16.896-6.656 16.896-16.896s-6.656-16.896-16.896-16.896h-51.2V317.44h51.2c10.24 0 16.896-6.656 16.896-16.896s-6.656-16.896-16.896-16.896h-51.2V204.8c0-37.376-30.72-68.096-68.096-68.096h-167.424v-51.2c0-10.24-6.656-16.896-16.896-16.896s-16.896 6.656-16.896 16.896v51.2h-92.16v-51.2c0-10.24-6.656-16.896-16.896-16.896s-16.896 6.656-16.896 16.896v51.2h-92.16v-51.2c0-10.24-6.656-16.896-16.896-16.896s-16.896 6.656-16.896 16.896v51.2H337.92v-51.2c0-10.24-10.24-16.896-16.896-16.896-10.24 0-16.896 6.656-16.896 16.896v51.2H136.704c-37.376 0-68.096 30.72-68.096 68.096V290.304h-51.2c-10.24 0-16.896 10.24-16.896 16.896 0 10.24 6.656 16.896 16.896 16.896h51.2v92.16h-51.2c-10.24 0-16.896 6.656-16.896 16.896s6.656 16.896 16.896 16.896h51.2v95.744h-51.2c-10.24 0-16.896 6.656-16.896 16.896s6.656 16.896 16.896 16.896h51.2v92.16h-51.2c-10.24 0-16.896 10.24-16.896 16.896 0 10.24 6.656 16.896 16.896 16.896h51.2v112.64c0 37.376 30.72 68.096 68.096 68.096h167.424v51.2c0 10.24 6.656 16.896 16.896 16.896s16.896-6.656 16.896-16.896v-51.2h92.16v51.2c0 10.24 6.656 16.896 16.896 16.896 10.24 0 16.896-6.656 16.896-16.896v-51.2h92.16v51.2c0 10.24 6.656 16.896 16.896 16.896s16.896-6.656 16.896-16.896v-51.2h92.16v51.2c0 10.24 6.656 16.896 16.896 16.896s16.896-6.656 16.896-16.896v-51.2h170.496c37.376 0 68.096-30.72 68.096-68.096V699.904h51.2c10.24 0 16.896-6.656 16.896-16.896s-6.656-16.896-16.896-16.896h-51.2V573.44h51.2c10.24 0 16.896-6.656 16.896-16.896s-6.656-16.896-16.896-16.896h-51.2V443.904h52.736zM409.6 416.256h-81.92c-10.24 0-20.48 10.24-20.48 20.48V532.48c0 13.824 10.24 20.48 20.48 24.064h81.92v13.824c0 10.24-10.24 20.48-20.48 20.48h-95.744c-10.24 0-20.48-10.24-20.48-20.48v-163.84c0-10.24 10.24-20.48 20.48-20.48H389.12c13.824 0 20.48 6.656 20.48 16.896v13.312z m170.496 81.92c0 10.24-10.24 20.48-20.48 20.48h-75.264v47.616c0 10.24-10.24 20.48-20.48 20.48s-20.48-10.24-20.48-20.48V406.016c0-10.24 10.24-20.48 20.48-20.48h92.16c10.24 0 20.48 6.656 24.064 16.896v95.744z m171.008 71.68c0 10.24-10.24 20.48-20.48 20.48H634.88c-10.24 0-20.48-10.24-20.48-20.48v-163.84c0-10.24 10.24-20.48 20.48-20.48h13.824v150.016c0 10.24 10.24 20.48 20.48 20.48h27.136c10.24 0 20.48-10.24 20.48-20.48V385.536h13.824c13.824 0 20.48 6.656 20.48 20.48v163.84z" fill="#bfbfbf" p-id="19587"></path></svg>