<?xml version="1.0" standalone="no"?><!DOCTYPE svg PUBLIC "-//W3C//DTD SVG 1.1//EN" "http://www.w3.org/Graphics/SVG/1.1/DTD/svg11.dtd"><svg t="1714662095682" class="icon" viewBox="0 0 1024 1024" version="1.1" xmlns="http://www.w3.org/2000/svg" p-id="26347" xmlns:xlink="http://www.w3.org/1999/xlink" width="16" height="16"><path d="M524.8 913.066667c-59.733333 0-110.933333-21.333333-153.6-59.733334h-217.6c-25.6 0-42.666667-17.066667-42.666667-42.666666V230.4c0-42.666667 34.133333-76.8 76.8-76.8h192c59.733333 0 110.933333 25.6 145.066667 68.266667 34.133333-42.666667 89.6-68.266667 145.066667-68.266667h192c42.666667 0 76.8 34.133333 76.8 76.8V810.666667c0 25.6-17.066667 42.666667-42.666667 42.666666h-217.6c-42.666667 38.4-93.866667 59.733333-153.6 59.733334z m-324.266667-140.8h192c12.8 0 21.333333 4.266667 29.866667 12.8 25.6 29.866667 64 42.666667 102.4 42.666666 38.4 0 76.8-17.066667 102.4-42.666666 8.533333-8.533333 21.333333-12.8 34.133333-12.8h192V243.2h-179.2c-55.466667 0-102.4 46.933333-102.4 102.4v285.866667c0 25.6-17.066667 42.666667-42.666666 42.666666s-42.666667-17.066667-42.666667-42.666666v-285.866667c0-55.466667-46.933333-102.4-102.4-102.4h-179.2v529.066667z" fill="#bfbfbf" p-id="26348"></path></svg>