<?xml version="1.0" standalone="no"?><!DOCTYPE svg PUBLIC "-//W3C//DTD SVG 1.1//EN" "http://www.w3.org/Graphics/SVG/1.1/DTD/svg11.dtd"><svg t="1714663173075" class="icon" viewBox="0 0 1024 1024" version="1.1" xmlns="http://www.w3.org/2000/svg" p-id="65027" xmlns:xlink="http://www.w3.org/1999/xlink" width="16" height="16"><path d="M206.95238079 230.758597c61.96844519-52.43483808 133.47049578-81.03565934 228.80656656-90.56926639 57.20164081-4.76680268 104.86967623-9.53360709 147.77090719-9.53360708 85.80246203 4.76680268 157.30451429 28.60082124 214.50615509 76.26885664h9.53360542c38.13442831-19.06721413 76.26885497-19.06721413 109.63648057-4.76680437 38.13442831 19.06721413 61.96844519 57.20164081 66.73524789 104.86967618 4.76680268 47.66803373-9.53360709 90.56926474-47.66803541 119.17008599-9.53360709 4.76680268-14.30040978 9.53360709-14.30040976 14.30040978 0 0 0 9.53360709 4.76680436 14.30041144 19.06721413 81.03565934 19.06721413 166.83812137 19.06721248 243.10697467v128.70369304c0 9.53360709 0 19.06721413-9.53360708 28.60082126-4.76680268 4.76680268-9.53360709 9.53360709-19.06721248 9.53360705s-14.30040978-4.76680268-19.06721417-9.53360705c-9.53360709-9.53360709-9.53360709-19.06721413-4.76680436-28.60082126v-90.56926473c0-95.33606912 0-171.60492409-14.30040979-243.10697635-14.30040978-85.80246203-33.36762395-143.00410283-66.73524787-190.6721382-23.83401689-38.13442831-57.20164081-61.96844519-100.10287182-85.80246205-71.50205225-33.36762395-143.00410283-33.36762395-214.5061551-23.83401688-42.90123101 4.76680268-100.10287182 9.53360709-152.53771158 28.60082127-95.33606912 28.60082124-157.30451429 100.10287182-181.13853116 214.50615507-23.83401689 100.10287182-28.60082124 204.97254802-19.06721248 309.84222422 4.76680268 28.60082124 4.76680268 57.20164081 9.53360709 85.80246202v4.7668027c4.76680268 28.60082124-14.30040978 38.13442831-19.06721416 38.13442832h-4.76680437c-4.76680268 0-14.30040978-4.76680268-14.30040979-4.76680435-4.76680268-4.76680268-9.53360709-14.30040978-9.53360708-23.83401687-4.76680268-38.13442831-9.53360709-76.26885497-9.5336071-109.6364789-9.53360709-95.33606912 0-185.90533386 9.5336071-257.40738612v-4.76680436c-47.66803373-23.83401689-76.26885497-81.03565934-66.73524786-138.23729846 9.53360709-61.96844519 47.66803373-100.10287182 100.10287181-109.63648058 9.53360709-14.30040978 33.36762395-9.53360709 66.73524786 4.76680435m-61.9684435 47.66803372H130.68352585c-28.60082124 4.76680268-47.66803373 28.60082124-52.43483811 61.96844519-4.76680268 28.60082124 9.53360709 52.43483808 28.60082124 66.73524786 0-4.76680268 4.76680268-14.30040978 4.76680436-19.06721413l-4.76680436-4.76680267c-9.53360709-19.06721413-14.30040978-42.90123101 0-61.96844522 9.53360709-19.06721413 28.60082124-28.60082124 47.6680354-23.83401682 4.76680268-4.76680268 9.53360709-9.53360709 9.53360539-19.06721421h-19.06721248z m719.78732022-9.53360704c14.30040978 0 28.60082124 9.53360709 38.13442666 23.83401853 9.53360709 14.30040978 14.30040978 38.13442831-9.53360708 66.73524787 4.76680268 4.76680268 4.76680268 9.53360709 4.76680436 14.30040977v4.76680437c23.83401689-19.06721413 33.36762395-52.43483808 23.83401689-85.80246201-9.53360709-28.60082124-28.60082124-42.90123101-61.9684452-42.90123103h-19.06721247c0 4.76680268 4.76680268 4.76680268 4.7668027 9.53360541l4.76680271 4.76680438c4.76680268 4.76680268 9.53360709 4.76680268 14.30041143 4.76680271z" p-id="65028" fill="#bfbfbf"></path><path d="M626.43108559 716.97254802c-4.76680268-19.06721413-19.06721413-38.13442831-33.36762564-47.66803373l-4.76680268-4.76680439c-9.53360709-4.76680268-9.53360709-9.53360709-9.53360709-14.30040975 0-9.53360709-4.76680268-19.06721413-9.53360707-23.83401689-19.06721413-19.06721413-47.66803373-23.83401689-71.5020506-23.83401852-23.83401689 4.76680268-42.90123101 19.06721413-52.43483811 38.13442829-9.53360709 14.30040978-19.06721413 23.83401689-28.60082122 38.13442834-14.30040978 14.30040978-23.83401689 38.13442831-23.83401685 61.96844349 4.76680268 23.83401689 14.30040978 42.90123101 33.36762395 47.66803537 4.76680268 4.76680268 9.53360709 4.76680268 14.30040977 4.76680271l-4.7668027 28.60082126s0 42.90123101 23.83401684 61.96844519c9.53360709 4.76680268 14.30040978 9.53360709 23.83401687 9.53360708s19.06721413-4.76680268 28.60082125-9.53360708c14.30040978 14.30040978 33.36762395 14.30040978 52.43483808 4.76680268 14.30040978-9.53360709 23.83401689-28.60082124 23.83401688-52.4348381v-28.60081954-4.76680439h4.76680268c14.30040978-4.76680268 28.60082124-14.30040978 33.36762564-28.60082122 4.76680268-19.06721413 4.76680268-38.13442831 0-57.2016408zM488.19378545 798.00820735v33.36762392l-4.76680439 9.53360709v-9.53360705c0-9.53360709 0-23.83401689 4.76680439-38.13442831v-4.76680273l4.7668027-4.76680437v14.30041145h-4.7668027z m52.43483808 38.13442664h-4.76680437V798.00820735v-9.53360708c4.76680268 4.76680268 4.76680268 4.76680268 4.76680437 9.53360708v38.13442664z m42.90123101-90.56926471h-9.53360706c-9.53360709 0-19.06721413 0-23.83401854-4.76680442-9.53360709-4.76680268-23.83401689-9.53360709-33.36762394-9.53360707-9.53360709 0-19.06721413 4.76680268-33.36762394 9.53360707-9.53360709 4.76680268-19.06721413 9.53360709-33.36762395 9.5336071-9.53360709 0-9.53360709 0-9.53360706-4.76680268-4.76680268-9.53360709 0-14.30040978 0-19.06721421 9.53360709-14.30040978 14.30040978-14.30040978 28.60082122-9.53360705 33.36762395 14.30040978 61.96844519 14.30040978 90.56926474-9.53360706 9.53360709 4.76680268 19.06721413 9.53360709 23.83401853 19.06721411 4.76680268 9.53360709 0 14.30040978 0 19.06721421zM655.03190513 287.96023783c-81.03565934 0-147.77090721 76.26885497-147.77090721 166.83812136 0 42.90123101 14.30040978 85.80246203 42.90123102 119.170086 28.60082124 33.36762395 66.73524785 52.43483808 104.86967619 52.43483807 81.03565934 0 143.00410283-76.26885497 143.0041045-166.83812134 4.76680268-95.33606912-61.96844519-171.60492409-143.0041045-171.60492409z m4.76680438 276.47460025c-28.60082124 0-52.43483808-14.30040978-71.50205224-33.3676239h4.76680268c14.30040978 0 33.36762395-9.53360709 42.90123103-19.06721418 9.53360709-14.30040978 19.06721413-28.60082124 19.06721415-47.66803373s-4.76680268-33.36762395-19.06721415-47.66803539c-9.53360709-14.30040978-28.60082124-23.83401689-42.90123103-23.83401687-9.53360709 0-14.30040978 0-23.83401684 4.76680273 19.06721413-33.36762395 47.66803373-57.20164081 85.80246202-57.20164083 28.60082124 0 52.43483808 14.30040978 71.50205227 33.36762394 19.06721413 19.06721413 28.60082124 47.66803373 28.60082122 81.03565934 0 66.73524785-38.13442831 109.63647892-95.33606911 109.63647889zM349.95648529 302.26064762c-38.13442831 0-76.26885497 19.06721413-104.86967616 47.6680354-28.60082124 33.36762395-42.90123101 71.50205225-42.90123103 114.40328325 0 42.90123101 14.30040978 85.80246203 42.90123103 114.40328158 28.60082124 33.36762395 66.73524785 52.43483808 104.86967616 52.43483814 76.26885497 0 143.00410283-76.26885497 143.00410286-166.83811972 0-85.80246203-66.73524785-162.07131698-143.00410286-162.07131865z m0 276.47460023c-28.60082124 0-52.43483808-14.30040978-76.26885496-33.3676239h4.76680274c14.30040978 0 28.60082124-9.53360709 42.90123099-19.06721417 9.53360709-14.30040978 19.06721413-33.36762395 19.06721418-47.66803373 0-38.13442831-28.60082124-71.50205225-61.96844517-71.50205228-4.76680268 0-14.30040978 0-19.06721419 4.76680441 19.06721413-33.36762395 47.66803373-52.43483808 85.80246205-52.4348381 57.20164081 0 100.10287182 47.66803373 100.10287347 114.40328161 4.76680268 57.20164081-42.90123101 104.86967623-95.33606911 104.86967616z" p-id="65029" fill="#bfbfbf"></path></svg>