<?xml version="1.0" standalone="no"?><!DOCTYPE svg PUBLIC "-//W3C//DTD SVG 1.1//EN" "http://www.w3.org/Graphics/SVG/1.1/DTD/svg11.dtd"><svg t="1714662213239" class="icon" viewBox="0 0 1024 1024" version="1.1" xmlns="http://www.w3.org/2000/svg" p-id="30581" xmlns:xlink="http://www.w3.org/1999/xlink" width="16" height="16"><path d="M426.090667 264.896l-8.277334 30.912a32 32 0 0 0 61.824 16.554667l8.277334-30.912 61.824 16.576-8.298667 30.890666a32 32 0 0 0 61.824 16.576l8.277333-30.912 61.824 16.576-8.277333 30.912a32 32 0 0 0 61.824 16.554667l8.277333-30.912 61.824 16.554667-16.576 61.866666-30.912-8.298666a32 32 0 0 0-16.554666 61.824l30.912 8.277333-16.576 61.824-30.912-8.277333a32 32 0 1 0-16.554667 61.824l30.912 8.277333-16.576 61.824-30.912-8.277333a32 32 0 1 0-16.554667 61.824l30.912 8.277333-16.554666 61.781333-61.824-16.576 8.277333-30.890666a32 32 0 1 0-61.824-16.576l-8.277333 30.912-61.824-16.554667 8.298666-30.933333a32 32 0 1 0-61.824-16.554667l-8.277333 30.912-61.824-16.554667 8.277333-30.933333a32 32 0 0 0-61.824-16.554667l-8.277333 30.933334-61.824-16.576 16.554667-61.802667 30.933333 8.298667a32 32 0 0 0 16.554667-61.824l-30.933334-8.277334 16.576-61.824 30.912 8.277334a32 32 0 0 0 16.554667-61.824l-30.890667-8.277334 16.554667-61.824 30.933333 8.298667a32 32 0 0 0 16.554667-61.824l-30.933333-8.277333 16.597333-61.866667 61.802667 16.576z m16.576-61.824l-61.824-16.576a64 64 0 0 0-78.378667 45.269333l-16.576 61.866667-30.912-8.298667a32 32 0 1 0-16.554667 61.824l30.890667 8.277334-16.554667 61.824-30.933333-8.298667a32 32 0 1 0-16.554667 61.824l30.933334 8.298667-16.576 61.802666-30.912-8.277333a32 32 0 1 0-16.554667 61.824l30.912 8.277333-16.554667 61.781334a64 64 0 0 0 45.226667 78.4l61.845333 16.554666-8.298666 30.912a32 32 0 1 0 61.824 16.554667l8.277333-30.912 61.824 16.576-8.277333 30.912a32 32 0 0 0 61.824 16.554667l8.277333-30.912 61.824 16.576-8.298667 30.912a32 32 0 0 0 61.824 16.554666l8.277334-30.912 61.824 16.576a64 64 0 0 0 78.4-45.269333l16.554666-61.781333 30.890667 8.277333a32 32 0 1 0 16.576-61.802667l-30.912-8.298666 16.576-61.824 30.890667 8.298666a32 32 0 1 0 16.576-61.824l-30.912-8.277333 16.554666-61.824 30.933334 8.277333a32 32 0 0 0 16.554666-61.824l-30.912-8.277333 16.576-61.866667a64 64 0 0 0-45.269333-78.357333L751.786667 285.866667l8.277333-30.890667a32 32 0 1 0-61.824-16.576l-8.277333 30.912-61.824-16.576 8.277333-30.912a32 32 0 1 0-61.824-16.554667l-8.277333 30.912-61.824-16.576 8.298666-30.890666a32 32 0 1 0-61.824-16.576L442.666667 203.093333z m-11.221334 221.418667l-30.101333 112.341333a64 64 0 0 0 45.248 78.378667l110.272 29.546666a64 64 0 0 0 78.378667-45.248l30.101333-112.362666a64 64 0 0 0-45.248-78.378667l-110.272-29.546667a64 64 0 0 0-78.378667 45.269334z m141.973334 158.464l-110.250667-29.546667 30.101333-112.362667 110.250667 29.546667-30.101333 112.362667z" p-id="30582" fill="#bfbfbf"></path></svg>