<?xml version="1.0" standalone="no"?><!DOCTYPE svg PUBLIC "-//W3C//DTD SVG 1.1//EN" "http://www.w3.org/Graphics/SVG/1.1/DTD/svg11.dtd"><svg t="1714662944243" class="icon" viewBox="0 0 1024 1024" version="1.1" xmlns="http://www.w3.org/2000/svg" p-id="56709" xmlns:xlink="http://www.w3.org/1999/xlink" width="16" height="16"><path d="M512.1 0C229.4 0 0.1 229.2 0.1 512s229.2 512 512 512 512-229.2 512-512S794.9 0 512.1 0z m311.2 823.1c-40.4 40.4-87.5 72.2-139.9 94.3-54.2 22.9-111.8 34.6-171.3 34.6-59.4 0-117-11.6-171.2-34.5-52.4-22.2-99.4-53.9-139.9-94.3-40.4-40.4-72.2-87.5-94.3-139.9C83.8 629 72.1 571.4 72.1 512s11.6-117 34.5-171.2c22.2-52.4 53.9-99.4 94.3-139.9 40.4-40.4 87.5-72.2 139.9-94.3C395.1 83.6 452.7 72 512.1 72c59.4 0 117 11.6 171.2 34.5 52.4 22.2 99.4 53.9 139.9 94.3 40.4 40.4 72.2 87.5 94.3 139.9 22.9 54.2 34.5 111.8 34.5 171.2s-11.6 117-34.5 171.2c-22.1 52.5-53.8 99.5-94.2 140z" p-id="56710" fill="#bfbfbf"></path><path d="M488 285c0-28.2-22.8-51-51-51H291c-28.2 0-51 22.8-51 51v146c0 28.2 22.8 51 51 51h146c28.2 0 51-22.8 51-51V285z m-61 137H300V294h127v128zM781 357.9c0-68.4-55.5-123.9-123.9-123.9h-0.2C588.5 234 533 289.5 533 357.9v0.2c0 68.4 55.5 123.9 123.9 123.9h0.2c68.4 0 123.9-55.5 123.9-123.9v-0.2z m-79.3 45.4c-12.1 12.1-28.1 18.8-45.1 18.8-16.9 0-32.9-6.7-45.1-18.8-12.1-12.1-18.8-28.1-18.8-45.1 0-16.9 6.7-33.1 18.8-45.2 12.1-12.1 28.1-19 45.1-19 16.9 0 32.9 6.8 45.1 19 12.1 12.1 18.8 28.2 18.8 45.1 0 16.9-6.7 33-18.8 45.2zM488 579c0-28.2-22.8-51-51-51H291c-28.2 0-51 22.8-51 51v146c0 28.2 22.8 51 51 51h146c28.2 0 51-22.8 51-51V579z m-61 137H300V588h127v128zM781 579c0-28.2-22.8-51-51-51H584c-28.2 0-51 22.8-51 51v146c0 28.2 22.8 51 51 51h146c28.2 0 51-22.8 51-51V579z m-61 137H593V588h127v128z" p-id="56711" fill="#bfbfbf"></path></svg>