<?xml version="1.0" standalone="no"?><!DOCTYPE svg PUBLIC "-//W3C//DTD SVG 1.1//EN" "http://www.w3.org/Graphics/SVG/1.1/DTD/svg11.dtd"><svg t="1714661235173" class="icon" viewBox="0 0 1228 1024" version="1.1" xmlns="http://www.w3.org/2000/svg" p-id="9697" xmlns:xlink="http://www.w3.org/1999/xlink" width="19.1875" height="16"><path d="M262.826667 356.420267l25.326933 63.419733 404.753067-161.860267-25.326934-63.419733zM206.574933 591.0528l68.266667 204.8 64.7168-21.572267-68.266667-204.8zM764.381867 299.281067l-55.5008-39.662934-380.996267 533.367467 55.5008 39.662933z" fill="#bfbfbf" p-id="9698"></path><path d="M289.450667 537.053867l-21.640534 64.7168 675.293867 226.5088 21.7088-64.7168z" fill="#bfbfbf" p-id="9699"></path><path d="M170.666667 273.066667a170.666667 170.666667 0 1 1 0 341.333333 170.666667 170.666667 0 0 1 0-341.333333z m0 68.266666a102.4 102.4 0 1 0 0 204.8 102.4 102.4 0 0 0 0-204.8zM785.066667 0a170.666667 170.666667 0 1 1 0 341.333333 170.666667 170.666667 0 0 1 0-341.333333z m0 68.266667a102.4 102.4 0 1 0 0 204.8 102.4 102.4 0 0 0 0-204.8zM1058.133333 682.666667a170.666667 170.666667 0 1 1 0 341.333333 170.666667 170.666667 0 0 1 0-341.333333z m0 68.266666a102.4 102.4 0 1 0 0 204.8 102.4 102.4 0 0 0 0-204.8zM307.2 750.933333a102.4 102.4 0 1 1 0 204.8 102.4 102.4 0 0 1 0-204.8z m0 68.266667a34.133333 34.133333 0 1 0 0 68.266667 34.133333 34.133333 0 0 0 0-68.266667z" fill="#bfbfbf" p-id="9700"></path></svg>