<?xml version="1.0" standalone="no"?><!DOCTYPE svg PUBLIC "-//W3C//DTD SVG 1.1//EN" "http://www.w3.org/Graphics/SVG/1.1/DTD/svg11.dtd"><svg t="1714663380384" class="icon" viewBox="0 0 1024 1024" version="1.1" xmlns="http://www.w3.org/2000/svg" p-id="69676" xmlns:xlink="http://www.w3.org/1999/xlink" width="16" height="16"><path d="M848.457143 512c109.714286 98.742857 164.571429 197.485714 128 256-21.942857 32.914286-65.828571 47.542857-128 47.542857-47.542857 0-106.057143-10.971429-168.228572-25.6-36.571429 138.971429-98.742857 234.057143-168.228571 234.057143s-131.657143-91.428571-168.228571-234.057143c-62.171429 18.285714-120.685714 25.6-168.228572 25.6-62.171429 0-109.714286-14.628571-128-47.542857-36.571429-58.514286 18.285714-157.257143 128-256-109.714286-98.742857-164.571429-197.485714-128-256 21.942857-32.914286 65.828571-47.542857 128-47.542857 47.542857 0 106.057143 10.971429 168.228572 25.6C380.342857 91.428571 442.514286 0 512 0s131.657143 91.428571 168.228571 234.057143c62.171429-18.285714 120.685714-25.6 168.228572-25.6 62.171429 0 109.714286 14.628571 128 47.542857 36.571429 58.514286-18.285714 157.257143-128 256zM164.571429 614.4c-62.171429 73.142857-62.171429 113.371429-58.514286 120.685714 3.657143 7.314286 21.942857 18.285714 73.142857 18.285715 43.885714 0 95.085714-10.971429 153.6-25.6-10.971429-32.914286-14.628571-69.485714-18.285714-106.057143-32.914286-21.942857-62.171429-43.885714-91.428572-65.828572-21.942857 18.285714-40.228571 40.228571-58.514285 58.514286z m146.285714-128c-10.971429 7.314286-25.6 18.285714-36.571429 25.6 10.971429 7.314286 21.942857 18.285714 36.571429 25.6V512v-25.6zM175.542857 270.628571c-47.542857 0-69.485714 10.971429-73.142857 18.285715-3.657143 7.314286-3.657143 47.542857 58.514286 120.685714 18.285714 21.942857 40.228571 40.228571 62.171428 62.171429 29.257143-21.942857 58.514286-43.885714 91.428572-65.828572 3.657143-40.228571 7.314286-76.8 14.628571-109.714286-54.857143-14.628571-109.714286-25.6-153.6-25.6z m460.8 394.971429c-7.314286 3.657143-14.628571 10.971429-25.6 14.628571-7.314286 3.657143-14.628571 7.314286-25.6 10.971429 14.628571 7.314286 29.257143 10.971429 40.228572 14.628571 7.314286-10.971429 10.971429-25.6 10.971428-40.228571zM512 961.828571c25.6 0 73.142857-65.828571 106.057143-190.171428-32.914286-10.971429-69.485714-25.6-106.057143-43.885714-36.571429 14.628571-69.485714 29.257143-106.057143 43.885714 32.914286 124.342857 80.457143 190.171429 106.057143 190.171428z m-117.028571-256c14.628571-3.657143 29.257143-10.971429 40.228571-14.628571-7.314286-3.657143-14.628571-7.314286-25.6-10.971429-7.314286-3.657143-14.628571-10.971429-25.6-14.628571 3.657143 14.628571 7.314286 29.257143 10.971429 40.228571z m-7.314286-347.428571c7.314286-3.657143 14.628571-10.971429 25.6-14.628571 7.314286-3.657143 14.628571-7.314286 25.6-10.971429-14.628571-7.314286-29.257143-10.971429-40.228572-14.628571-7.314286 10.971429-10.971429 25.6-10.971428 40.228571zM512 62.171429c-25.6 0-73.142857 65.828571-106.057143 190.171428 36.571429 14.628571 69.485714 25.6 106.057143 43.885714 36.571429-14.628571 69.485714-29.257143 106.057143-43.885714-32.914286-124.342857-80.457143-190.171429-106.057143-190.171428z m117.028571 256c-14.628571 3.657143-29.257143 10.971429-40.228571 14.628571 7.314286 3.657143 14.628571 7.314286 25.6 10.971429 7.314286 3.657143 14.628571 10.971429 25.6 14.628571-3.657143-14.628571-7.314286-29.257143-10.971429-40.228571z m14.628572 120.685714c-21.942857-14.628571-43.885714-25.6-65.828572-40.228572L512 365.714286l-65.828571 32.914285c-21.942857 10.971429-43.885714 25.6-65.828572 40.228572 0 21.942857-3.657143 47.542857-3.657143 73.142857s0 47.542857 3.657143 73.142857c21.942857 14.628571 43.885714 25.6 65.828572 40.228572l65.828571 32.914285 65.828571-32.914285c21.942857-10.971429 43.885714-25.6 65.828572-40.228572 0-21.942857 3.657143-47.542857 3.657143-73.142857s0-47.542857-3.657143-73.142857z m204.8 314.514286c47.542857 0 69.485714-10.971429 73.142857-18.285715 3.657143-7.314286 3.657143-47.542857-58.514286-120.685714-18.285714-21.942857-36.571429-40.228571-62.171428-62.171429-29.257143 21.942857-58.514286 43.885714-91.428572 65.828572-3.657143 36.571429-7.314286 73.142857-14.628571 106.057143 54.857143 18.285714 109.714286 29.257143 153.6 29.257143z m-135.314286-215.771429c10.971429-7.314286 25.6-18.285714 36.571429-25.6-10.971429-7.314286-21.942857-18.285714-36.571429-25.6v51.2z m204.8-248.685714c-3.657143-7.314286-21.942857-18.285714-69.485714-18.285715-43.885714 0-95.085714 10.971429-153.6 25.6 7.314286 32.914286 10.971429 69.485714 14.628571 106.057143 32.914286 21.942857 62.171429 43.885714 91.428572 65.828572 21.942857-21.942857 43.885714-40.228571 62.171428-62.171429 58.514286-69.485714 62.171429-109.714286 54.857143-117.028571zM512 559.542857c-25.6 0-51.2-21.942857-51.2-47.542857 0-25.6 21.942857-47.542857 51.2-47.542857s51.2 21.942857 51.2 47.542857c0 25.6-21.942857 47.542857-51.2 47.542857z" fill="#d4237a" p-id="69677"></path></svg>