<?xml version="1.0" standalone="no"?><!DOCTYPE svg PUBLIC "-//W3C//DTD SVG 1.1//EN" "http://www.w3.org/Graphics/SVG/1.1/DTD/svg11.dtd"><svg t="1714662427755" class="icon" viewBox="0 0 1024 1024" version="1.1" xmlns="http://www.w3.org/2000/svg" p-id="38584" xmlns:xlink="http://www.w3.org/1999/xlink" width="16" height="16"><path d="M853.333333 266.666667l-298.666666-170.666667c-25.6-14.933333-57.6-14.933333-85.333334 0l-298.666666 170.666667c-25.6 14.933333-42.666667 42.666667-42.666667 74.666666v341.333334c0 29.866667 17.066667 59.733333 42.666667 74.666666l298.666666 170.666667c25.6 14.933333 57.6 14.933333 85.333334 0l298.666666-170.666667c25.6-14.933333 42.666667-42.666667 42.666667-74.666666V341.333333c0-29.866667-17.066667-57.6-42.666667-74.666666z m-200.533333 430.933333c-19.2 0-42.666667-8.533333-57.6-25.6L405.333333 445.866667v211.2c0 23.466667-17.066667 40.533333-40.533333 40.533333H362.666667c-23.466667 0-40.533333-19.2-40.533334-40.533333V366.933333c0-21.333333 19.2-40.533333 46.933334-40.533333 21.333333 0 42.666667 8.533333 57.6 25.6l189.866666 226.133333v-211.2c0-23.466667 19.2-40.533333 40.533334-40.533333h2.133333c23.466667 0 40.533333 19.2 40.533333 40.533333v290.133334c2.133333 23.466667-19.2 40.533333-46.933333 40.533333z" p-id="38585" fill="#bfbfbf"></path></svg>