<?xml version="1.0" standalone="no"?><!DOCTYPE svg PUBLIC "-//W3C//DTD SVG 1.1//EN" "http://www.w3.org/Graphics/SVG/1.1/DTD/svg11.dtd"><svg t="1714663106603" class="icon" viewBox="0 0 1024 1024" version="1.1" xmlns="http://www.w3.org/2000/svg" p-id="62417" xmlns:xlink="http://www.w3.org/1999/xlink" width="16" height="16"><path d="M855.7 531.5V349.9H583.6l-91.7-90.6-91.7 90.6H128V182.7h82.3v54.7h585.1V64H210.3v54.7H64v295.2h336.2l91.7 90.6 91.7-90.6h208.1v87.4c-21.7-6.5-44.7-10-68.5-10-72.8 0-138 32.7-181.5 84H64v237.4h439.4C538.4 899 623.7 960 723.2 960 853.8 960 960 854.9 960 725.7c0-80.7-41.4-152-104.3-194.2zM128 748.8V639.3h375c-10.7 26.7-16.6 55.9-16.6 86.3 0 7.8 0.4 15.5 1.1 23.1H128zM723.2 896c-63 0-118.3-33.4-148.5-83.2-11.6-19.2-19.6-40.9-22.8-64-1-7.5-1.6-15.3-1.6-23.1 0-31.5 8.7-61 23.9-86.3 15.6-26 38-47.6 64.7-62.4 24.9-13.8 53.7-21.6 84.2-21.6 60.1 0 113.1 30.4 144.1 76.5 12.8 19.1 21.9 40.8 26.1 64.2 1.7 9.6 2.6 19.5 2.6 29.7 0.1 93.8-77.4 170.2-172.7 170.2z" fill="#bfbfbf" p-id="62418"></path><path d="M606.6 717.3h84.6v120.4h64V717.3h84.6L723.2 600.7z" fill="#bfbfbf" p-id="62419"></path></svg>