<?xml version="1.0" standalone="no"?><!DOCTYPE svg PUBLIC "-//W3C//DTD SVG 1.1//EN" "http://www.w3.org/Graphics/SVG/1.1/DTD/svg11.dtd"><svg t="1714661554686" class="icon" viewBox="0 0 1024 1024" version="1.1" xmlns="http://www.w3.org/2000/svg" p-id="16605" xmlns:xlink="http://www.w3.org/1999/xlink" width="16" height="16"><path d="M811.707317 1024h-599.414634C94.907317 1024 0 929.092683 0 811.707317v-599.414634C0 94.907317 94.907317 0 212.292683 0h599.414634C929.092683 0 1024 94.907317 1024 212.292683v599.414634c0 117.385366-94.907317 212.292683-212.292683 212.292683zM212.292683 24.97561C109.892683 24.97561 24.97561 109.892683 24.97561 212.292683v599.414634C24.97561 914.107317 109.892683 999.02439 212.292683 999.02439h599.414634c102.4 0 187.317073-84.917073 187.317073-187.317073v-599.414634C999.02439 109.892683 914.107317 24.97561 811.707317 24.97561h-599.414634z" p-id="16606" fill="#bfbfbf"></path><path d="M162.341463 949.073171V89.912195h364.643903c92.409756 0 157.346341 7.492683 199.804878 22.478049s74.926829 42.458537 99.902439 82.419512 37.463415 84.917073 37.463415 134.868293c0 64.936585-19.980488 117.385366-57.443903 159.843902s-94.907317 67.434146-169.834146 79.921951c37.463415 22.478049 67.434146 44.956098 92.409756 72.429269s57.443902 72.429268 97.404878 139.863414c29.970732 47.453659 52.44878 82.419512 64.936585 104.897561 7.492683 14.985366 37.463415 34.965854 89.912195 62.439025H724.292683l-124.878049-187.317073c-44.956098-67.434146-74.926829-109.892683-92.409756-127.37561s-34.965854-29.970732-52.44878-34.965854-47.453659-9.990244-87.414635-9.990244h-34.965853V949.073171H162.341463z m174.829269-494.517073h127.375609c82.419512 0 134.868293-2.497561 154.848781-9.990244s37.463415-19.980488 47.453658-37.463415 17.482927-37.463415 17.482927-64.936585c0-29.970732-7.492683-52.44878-22.478048-69.931708S624.390244 242.263415 596.917073 239.765854c-14.985366-2.497561-54.946341-2.497561-127.37561-2.497561h-134.868292v217.287805z" p-id="16607" fill="#bfbfbf"></path></svg>