<?xml version="1.0" standalone="no"?><!DOCTYPE svg PUBLIC "-//W3C//DTD SVG 1.1//EN" "http://www.w3.org/Graphics/SVG/1.1/DTD/svg11.dtd"><svg t="1714661697729" class="icon" viewBox="0 0 1024 1024" version="1.1" xmlns="http://www.w3.org/2000/svg" p-id="18450" xmlns:xlink="http://www.w3.org/1999/xlink" width="16" height="16"><path d="M413.176315 0.499751H146.608339c-9.427296 0-17.060486 7.611202-17.060486 17.010511v989.467233c0 9.400309 7.633191 17.010511 17.060486 17.010511h266.568976c9.427296 0 17.060486-7.611202 17.060486-17.010511V17.510262C430.236802 8.110952 422.603611 0.499751 413.176315 0.499751z m-17.060486 989.467232H163.667826v-66.64874h149.278506c9.427296 0 17.060486-7.611202 17.060487-17.010512 0-9.400309-7.633191-17.011511-17.060487-17.011511H163.667826v-62.364878h83.169496c9.435292 0 17.060486-7.602206 17.060487-17.011511 0-9.400309-7.624195-17.010511-17.060487-17.010511h-83.169496v-65.380374h149.278506c9.427296 0 17.060486-7.610202 17.060487-17.010511 0-9.400309-7.633191-17.010511-17.060487-17.010512H163.667826v-66.446841h83.169496c9.435292 0 17.060486-7.610202 17.060487-17.010512 0-9.408305-7.624195-17.010511-17.060487-17.010511h-83.169496v-63.793166h149.278506c9.427296 0 17.060486-7.611202 17.060487-17.010511 0-9.400309-7.633191-17.010511-17.060487-17.010511H163.667826v-63.62425h83.169496c9.435292 0 17.060486-7.611202 17.060487-17.010512s-7.624195-17.010511-17.060487-17.010511h-83.169496v-65.371378h149.278506c9.427296 0 17.060486-7.602206 17.060487-17.010512 0-9.400309-7.633191-17.010511-17.060487-17.010511H163.667826v-65.036545h83.169496c9.435292 0 17.060486-7.602206 17.060487-17.010511 0-9.400309-7.624195-17.010511-17.060487-17.010512h-83.169496v-61.129495h149.278506c9.427296 0 17.060486-7.611202 17.060487-17.010511 0-9.400309-7.633191-17.010511-17.060487-17.010512H163.667826V34.521773h232.448003v955.44521z m498.635169-590.179486c0-0.049975-0.024988-0.091954-0.024987-0.142929-0.033983-2.478763-0.631685-4.779615-1.609197-6.896558-0.058971-0.125937-0.024988-0.25987-0.092954-0.385808L753.214628 106.579814c-11.331345-17.67418-39.419329-19.379329-52.679711 1.714145l-138.848712 284.068243c-0.058971 0.125937-0.033983 0.25987-0.092953 0.385808a16.845594 16.845594 0 0 0-1.533235 6.543734c-0.007996 0.167916-0.092954 0.31984-0.10095 0.487757 0 0.016992-0.007996 0.024988-0.007996 0.041979v557.887601a17.011511 17.011511 0 0 0 4.903553 11.920051l48.509793 49.27741a17.097468 17.097468 0 0 0 12.164929 5.082463h199.659365a17.181426 17.181426 0 0 0 11.694165-4.620694l52.511795-49.268414a16.984524 16.984524 0 0 0 5.366322-12.390816V399.82148c-0.001-0.007996-0.009995-0.024988-0.009995-0.033983zM727.359531 131.067594l47.296398 96.764712h-94.601792l47.305394-96.764712z m-19.461289 858.899389H632.689773l-38.618728-39.204436V421.208807l113.827197 26.175938v542.582238zM601.737219 388.044357l61.686217-126.191028h126.573837c0.42179 0 0.766617-0.201899 1.179411-0.234883l61.737192 126.291978-127.888181 28.493781-123.288476-28.359848z m258.901802 562.323387l-42.216933 39.599239h-76.404872V447.468703l118.620805-26.418817v529.317858z" fill="#bfbfbf" p-id="18451"></path></svg>