<?xml version="1.0" standalone="no"?><!DOCTYPE svg PUBLIC "-//W3C//DTD SVG 1.1//EN" "http://www.w3.org/Graphics/SVG/1.1/DTD/svg11.dtd"><svg t="1714661907743" class="icon" viewBox="0 0 1024 1024" version="1.1" xmlns="http://www.w3.org/2000/svg" p-id="21752" xmlns:xlink="http://www.w3.org/1999/xlink" width="16" height="16"><path d="M819.2 645.12h-61.44v-119.466667c0-13.653333-10.24-27.306667-27.306667-27.306666h-197.973333v-68.266667H648.533333c34.133333 0 61.44-27.306667 61.44-61.44v-102.4c0-34.133333-27.306667-61.44-61.44-61.44h-273.066666c-34.133333 0-61.44 27.306667-61.44 61.44v102.4c0 34.133333 27.306667 61.44 61.44 61.44h109.226666v68.266667H290.133333c-13.653333 0-27.306667 10.24-27.306666 27.306666v119.466667H204.8c-20.48 0-34.133333 13.653333-34.133333 34.133333v102.4c0 20.48 13.653333 34.133333 34.133333 34.133334h136.533333c20.48 0 34.133333-13.653333 34.133334-34.133334v-102.4c0-20.48-13.653333-34.133333-34.133334-34.133333h-27.306666v-95.573333h170.666666v95.573333H443.733333c-20.48 0-34.133333 13.653333-34.133333 34.133333v102.4c0 20.48 13.653333 34.133333 34.133333 34.133334h136.533334c20.48 0 34.133333-13.653333 34.133333-34.133334v-102.4c0-20.48-13.653333-34.133333-34.133333-34.133333h-40.96v-95.573333h170.666666v95.573333H682.666667c-20.48 0-34.133333 13.653333-34.133334 34.133333v102.4c0 20.48 13.653333 34.133333 34.133334 34.133334h136.533333c20.48 0 34.133333-13.653333 34.133333-34.133334v-102.4c0-20.48-13.653333-34.133333-34.133333-34.133333z m-450.56-273.066667v-102.4c0-3.413333 3.413333-6.826667 6.826667-6.826666h273.066666c3.413333 0 6.826667 3.413333 6.826667 6.826666v102.4c0 3.413333-3.413333 6.826667-6.826667 6.826667h-273.066666c-3.413333 0-6.826667-3.413333-6.826667-6.826667zM324.266667 764.586667h-102.4v-68.266667h102.4v68.266667z m238.933333-68.266667v68.266667h-102.4v-68.266667h102.4z m238.933333 68.266667h-102.4v-68.266667h102.4v68.266667z" fill="#bfbfbf" p-id="21753"></path></svg>