<?xml version="1.0" standalone="no"?><!DOCTYPE svg PUBLIC "-//W3C//DTD SVG 1.1//EN" "http://www.w3.org/Graphics/SVG/1.1/DTD/svg11.dtd"><svg t="1714663061918" class="icon" viewBox="0 0 1024 1024" version="1.1" xmlns="http://www.w3.org/2000/svg" p-id="59278" xmlns:xlink="http://www.w3.org/1999/xlink" width="16" height="16"><path d="M943.078 472.342L551.076 80.34c-21.859-21.859-57.626-21.859-79.485 0L79.589 472.342c-21.859 21.859-21.859 57.626 0 79.485l392.002 392.002c21.859 21.859 57.626 21.859 79.485 0l392.002-392.002c21.858-21.858 21.858-57.626 0-79.485z m-249.083 113.12c-37.939 0-68.693-30.755-68.693-68.693a68.532 68.532 0 0 1 4.136-23.521l-86.88-86.88v237.369c21.391 11.639 35.908 34.313 35.908 60.378 0 37.939-30.755 68.693-68.693 68.693s-68.693-30.755-68.693-68.693c0-27.314 15.944-50.903 39.03-61.973v-250.25c-23.022-10.642-39.03-33.879-39.03-60.907 0-7.808 1.401-15.272 3.853-22.243L344.061 207.871l44.159-44.159L490.738 266.23c5.58-1.503 11.418-2.378 17.473-2.378 37.076 0 67.132 30.056 67.132 67.132 0 6.055-0.875 11.893-2.378 17.473l102.241 102.241a68.68 68.68 0 0 1 18.789-2.623c37.939 0 68.693 30.755 68.693 68.693s-30.754 68.694-68.693 68.694z" p-id="59279" fill="#bfbfbf"></path></svg>