<?xml version="1.0" standalone="no"?><!DOCTYPE svg PUBLIC "-//W3C//DTD SVG 1.1//EN" "http://www.w3.org/Graphics/SVG/1.1/DTD/svg11.dtd"><svg t="1714661987451" class="icon" viewBox="0 0 1024 1024" version="1.1" xmlns="http://www.w3.org/2000/svg" p-id="23358" xmlns:xlink="http://www.w3.org/1999/xlink" width="16" height="16"><path d="M290.143433 426.665167H256.0095c-9.425982 0-17.065967 7.639985-17.065967 17.065966s7.639985 17.065967 17.065967 17.065967h34.133933a17.065967 17.065967 0 0 0 0-34.131933zM324.275367 358.3993h-102.3998c-9.425982 0-17.065967 7.639985-17.065967 17.065967s7.639985 17.065967 17.065967 17.065966h102.3998c9.425982 0 17.065967-7.639985 17.065966-17.065966s-7.639985-17.065967-17.065966-17.065967zM785.074467 204.7996H409.6092c-18.841963 0.022-34.111933 15.28997-34.133933 34.133933v187.733634c0.022 18.841963 15.29197 34.111933 34.133933 34.133933h375.465267c18.841963-0.022 34.111933-15.29197 34.133933-34.133933v-187.733634c-0.022-18.843963-15.28997-34.111933-34.133933-34.133933zM716.8086 238.933533h68.265867l0.01 119.465767H716.8086v-119.465767z m-238.933533 187.731634H409.6092v-34.133934h68.265867v34.133934z m0-68.265867H409.6092v-119.465767h68.265867V358.3993z m102.3998 68.265867H512.009v-34.133934h68.265867v34.133934z m0-68.265867H512.009v-119.465767h68.265867V358.3993z m102.3998 68.265867H614.4088v-34.133934h68.265867v34.133934z m0-68.265867H614.4088v-119.465767h68.265867V358.3993z m34.133933 68.265867v-34.133934h68.279867l0.004 34.133934H716.8086zM221.875567 136.533733a17.059967 17.059967 0 0 0 17.067966-17.067966V85.333833c0-9.425982-7.639985-17.065967-17.065966-17.065966s-17.065967 7.639985-17.065967 17.065966v34.133934a17.059967 17.059967 0 0 0 17.063967 17.065966zM273.075467 136.533733a17.059967 17.059967 0 0 0 17.067966-17.067966V85.333833c0-9.425982-7.639985-17.065967-17.065966-17.065966S256.0095 75.907852 256.0095 85.333833v34.133934a17.059967 17.059967 0 0 0 17.065967 17.065966zM324.275367 68.265867a17.059967 17.059967 0 0 0-17.067967 17.067966v34.133934c0 9.425982 7.639985 17.065967 17.065967 17.065966s17.065967-7.639985 17.065966-17.065966V85.333833a17.059967 17.059967 0 0 0-17.063966-17.067966z" fill="#bfbfbf" p-id="23359"></path><path d="M434.175152 304.291406c0.953998 0.647999 1.991996 1.165998 3.083994 1.541997 0.965998 0.489999 1.999996 0.835998 3.065994 1.025998 1.129998 0.196 2.269996 0.309999 3.415993 0.341999a17.073967 17.073967 0 0 0 13.569974-27.537946 17.073967 17.073967 0 0 0-16.985967-6.253988 10.759979 10.759979 0 0 0-3.065994 1.015998 13.011975 13.011975 0 0 0-3.083994 1.541997l-2.549995 2.049996a19.683962 19.683962 0 0 0-3.583993 5.625989 17.055967 17.055967 0 0 0-1.365997 6.491987 17.889965 17.889965 0 0 0 4.94999 12.117977c0.849998 0.679999 1.699997 1.361997 2.549995 2.037996zM536.574952 304.291406c0.953998 0.647999 1.991996 1.165998 3.083994 1.541997 0.965998 0.489999 1.999996 0.835998 3.065994 1.025998a23.899953 23.899953 0 0 0 3.417993 0.341999 17.073967 17.073967 0 0 0 13.569974-27.537946 17.073967 17.073967 0 0 0-16.985967-6.253988 10.759979 10.759979 0 0 0-3.065994 1.015998 13.011975 13.011975 0 0 0-3.083994 1.541997l-2.549995 2.049996a19.683962 19.683962 0 0 0-3.583993 5.625989 17.055967 17.055967 0 0 0-1.365997 6.491987 17.889965 17.889965 0 0 0 4.94999 12.117977c0.847998 0.679999 1.697997 1.363997 2.547995 2.037996zM638.974752 304.291406c0.953998 0.647999 1.991996 1.165998 3.083994 1.541997 0.965998 0.489999 1.999996 0.835998 3.065994 1.025998a23.899953 23.899953 0 0 0 3.417993 0.341999 17.139967 17.139967 0 0 0 12.117977-29.183943 17.857965 17.857965 0 0 0-15.53397-4.607991 10.759979 10.759979 0 0 0-3.065994 1.015998 13.011975 13.011975 0 0 0-3.083994 1.541997l-2.551995 2.049996a19.683962 19.683962 0 0 0-3.583993 5.625989 17.055967 17.055967 0 0 0-1.365997 6.491987 17.889965 17.889965 0 0 0 4.94999 12.117977c0.849998 0.679999 1.699997 1.363997 2.549995 2.037996zM747.52454 273.407466a10.759979 10.759979 0 0 0-3.065994 1.015998 13.011975 13.011975 0 0 0-3.083994 1.541997l-2.549995 2.049996a19.683962 19.683962 0 0 0-3.583993 5.625989 17.055967 17.055967 0 0 0-1.365997 6.491987 17.889965 17.889965 0 0 0 4.94999 12.117977c0.849998 0.681999 1.699997 1.365997 2.549995 2.041996 0.953998 0.647999 1.991996 1.165998 3.083994 1.541997 0.965998 0.489999 1.999996 0.835998 3.065994 1.025998a23.899953 23.899953 0 0 0 3.417993 0.341999 17.073967 17.073967 0 0 0 13.569974-27.537946 17.077967 17.077967 0 0 0-16.987967-6.257988zM785.074467 68.265867H409.6092c-18.841963 0.022-34.111933 15.28997-34.133933 34.133933v34.133933c0.022 18.841963 15.29197 34.111933 34.133933 34.133934h375.465267c18.841963-0.022 34.111933-15.28997 34.133933-34.133934V102.3998c-0.022-18.841963-15.28997-34.111933-34.133933-34.133933zM409.6092 136.533733V102.3998h375.465267l0.018 34.133933H409.6092zM212.309585 253.091506c0.953998 0.647999 1.991996 1.165998 3.083994 1.541997 0.965998 0.489999 1.999996 0.835998 3.065994 1.025998 1.129998 0.188 2.271996 0.301999 3.415994 0.341999a21.425958 21.425958 0 0 0 3.233993-0.341999 10.549979 10.549979 0 0 0 3.249994-1.025998 12.929975 12.929975 0 0 0 3.065994-1.541997c0.849998-0.675999 1.715997-1.357997 2.565995-2.041996a17.975965 17.975965 0 0 0 4.94999-12.115977 17.055967 17.055967 0 0 0-1.365997-6.491987 19.683962 19.683962 0 0 0-3.583993-5.625989c-0.811998-0.735999-1.669997-1.419997-2.565995-2.049996a12.967975 12.967975 0 0 0-3.065994-1.541997 10.32198 10.32198 0 0 0-3.249994-1.015998 17.491966 17.491966 0 0 0-15.34997 4.607991 19.657962 19.657962 0 0 0-3.583993 5.625989 14.213972 14.213972 0 0 0-1.365997 6.491987 17.889965 17.889965 0 0 0 4.94999 12.117977c0.849998 0.681999 1.699997 1.363997 2.549995 2.039996zM263.509485 253.091506c0.953998 0.647999 1.991996 1.165998 3.083994 1.541997 0.965998 0.489999 1.999996 0.835998 3.065994 1.025998 1.129998 0.188 2.271996 0.301999 3.415994 0.341999a21.425958 21.425958 0 0 0 3.233993-0.341999 10.549979 10.549979 0 0 0 3.249994-1.025998 12.929975 12.929975 0 0 0 3.065994-1.541997c0.897998-0.625999 1.755997-1.307997 2.567995-2.041996a17.975965 17.975965 0 0 0 4.94999-12.117977 19.413962 19.413962 0 0 0-0.349999-3.241993 10.08998 10.08998 0 0 0-1.015998-3.249994 13.327974 13.327974 0 0 0-1.533997-3.065994c-0.681999-0.857998-1.365997-1.707997-2.049996-2.557995-0.811998-0.735999-1.669997-1.419997-2.565995-2.049996a12.967975 12.967975 0 0 0-3.065994-1.541997 10.32198 10.32198 0 0 0-3.249994-1.015998 17.491966 17.491966 0 0 0-15.34997 4.607991c-0.735999 0.809998-1.419997 1.663997-2.049996 2.557995a12.679975 12.679975 0 0 0-1.533997 3.065994 10.565979 10.565979 0 0 0-1.033998 3.249994 21.235959 21.235959 0 0 0-0.333999 3.241993 17.889965 17.889965 0 0 0 4.94999 12.117977c0.805998 0.733999 1.657997 1.415997 2.549995 2.041996zM339.975336 232.441546a13.327974 13.327974 0 0 0-1.533997-3.065994c-0.681999-0.857998-1.365997-1.707997-2.049996-2.557995-0.811998-0.735999-1.669997-1.419997-2.565995-2.049996a12.929975 12.929975 0 0 0-3.065994-1.541997 10.32198 10.32198 0 0 0-3.249994-1.015998 17.491966 17.491966 0 0 0-15.34997 4.607991c-0.735999 0.809998-1.419997 1.663997-2.049996 2.557995a12.679975 12.679975 0 0 0-1.533997 3.065994 10.565979 10.565979 0 0 0-1.033998 3.249994 21.235959 21.235959 0 0 0-0.333999 3.241993 17.889965 17.889965 0 0 0 4.94999 12.117977c0.805998 0.733999 1.657997 1.415997 2.549995 2.041996 0.953998 0.647999 1.991996 1.165998 3.083994 1.541997 0.965998 0.489999 1.999996 0.835998 3.065994 1.025998a26.099949 26.099949 0 0 0 3.417994 0.339999 21.425958 21.425958 0 0 0 3.233993-0.341999 10.549979 10.549979 0 0 0 3.249994-1.025998 12.929975 12.929975 0 0 0 3.065994-1.541997c0.897998-0.625999 1.755997-1.307997 2.567995-2.041996a17.985965 17.985965 0 0 0 4.94999-12.117977 19.413962 19.413962 0 0 0-0.349999-3.241993 10.04798 10.04798 0 0 0-1.017998-3.247994zM212.309585 304.291406c0.953998 0.647999 1.991996 1.165998 3.083994 1.541997 0.965998 0.489999 1.999996 0.835998 3.065994 1.025998 1.129998 0.188 2.271996 0.301999 3.415994 0.341999a21.425958 21.425958 0 0 0 3.233993-0.341999 10.549979 10.549979 0 0 0 3.249994-1.025998 12.929975 12.929975 0 0 0 3.065994-1.541997c0.849998-0.673999 1.715997-1.357997 2.565995-2.041996a17.975965 17.975965 0 0 0 4.94999-12.117977 17.055967 17.055967 0 0 0-1.365997-6.491987 19.683962 19.683962 0 0 0-3.583993-5.625989c-0.811998-0.735999-1.669997-1.419997-2.565995-2.049996a12.967975 12.967975 0 0 0-3.065994-1.541997 10.32198 10.32198 0 0 0-3.249994-1.015998 17.491966 17.491966 0 0 0-15.34997 4.607991 19.683962 19.683962 0 0 0-3.583993 5.625989 14.213972 14.213972 0 0 0-1.365997 6.491987 17.889965 17.889965 0 0 0 4.94999 12.117977c0.849998 0.683999 1.699997 1.365997 2.549995 2.041996zM263.509485 304.291406c0.953998 0.647999 1.991996 1.165998 3.083994 1.541997 0.965998 0.489999 1.999996 0.835998 3.065994 1.025998 1.129998 0.188 2.271996 0.301999 3.415994 0.341999a21.425958 21.425958 0 0 0 3.233993-0.341999 10.549979 10.549979 0 0 0 3.249994-1.025998 12.929975 12.929975 0 0 0 3.065994-1.541997c0.897998-0.625999 1.755997-1.307997 2.567995-2.041996a17.975965 17.975965 0 0 0 4.94999-12.117977 19.413962 19.413962 0 0 0-0.349999-3.241993 10.08998 10.08998 0 0 0-1.015998-3.249994 13.327974 13.327974 0 0 0-1.533997-3.065994c-0.681999-0.857998-1.365997-1.707997-2.049996-2.557995-0.811998-0.735999-1.669997-1.419997-2.565995-2.049996a12.967975 12.967975 0 0 0-3.065994-1.541997 10.32198 10.32198 0 0 0-3.249994-1.015998 17.491966 17.491966 0 0 0-15.34997 4.607991c-0.735999 0.809998-1.419997 1.663997-2.049996 2.557995a12.679975 12.679975 0 0 0-1.533997 3.065994 10.565979 10.565979 0 0 0-1.033998 3.249994 21.235959 21.235959 0 0 0-0.333999 3.241993 17.889965 17.889965 0 0 0 4.94999 12.117977c0.805998 0.733999 1.657997 1.415997 2.549995 2.041996zM339.975336 283.641446a13.327974 13.327974 0 0 0-1.533997-3.065994c-0.681999-0.857998-1.365997-1.707997-2.049996-2.557995-0.811998-0.735999-1.669997-1.419997-2.565995-2.049996a12.929975 12.929975 0 0 0-3.065994-1.541997 10.32198 10.32198 0 0 0-3.249994-1.015998 17.491966 17.491966 0 0 0-15.34997 4.607991c-0.735999 0.809998-1.419997 1.663997-2.049996 2.557995a12.679975 12.679975 0 0 0-1.533997 3.065994 10.565979 10.565979 0 0 0-1.033998 3.249994 21.235959 21.235959 0 0 0-0.333999 3.241993 17.889965 17.889965 0 0 0 4.94999 12.117977c0.805998 0.733999 1.657997 1.415997 2.549995 2.041996 0.953998 0.647999 1.991996 1.165998 3.083994 1.541997 0.965998 0.489999 1.999996 0.835998 3.065994 1.025998 1.129998 0.188 2.271996 0.301999 3.417994 0.341999a21.425958 21.425958 0 0 0 3.233993-0.341999 10.549979 10.549979 0 0 0 3.249994-1.025998 12.929975 12.929975 0 0 0 3.065994-1.541997c0.897998-0.625999 1.755997-1.307997 2.567995-2.041996a17.985965 17.985965 0 0 0 4.94999-12.117977 19.413962 19.413962 0 0 0-0.349999-3.241993 10.04398 10.04398 0 0 0-1.017998-3.249994zM135.175736 795.640446a13.043975 13.043975 0 0 0-1.541997-3.065994 317.61938 317.61938 0 0 0-2.041996-2.557995c-0.857998-0.681999-1.707997-1.365997-2.557995-2.049996a12.995975 12.995975 0 0 0-3.075994-1.541997 10.779979 10.779979 0 0 0-3.075994-1.015998 17.077967 17.077967 0 1 0-3.409993 33.791934c1.141998-0.04 2.279996-0.154 3.407993-0.341999a11.103978 11.103978 0 0 0 3.073994-1.023998 13.033975 13.033975 0 0 0 3.075994-1.541997c0.849998-0.673999 1.699997-1.357997 2.557995-2.041996a17.975965 17.975965 0 0 0 4.94999-12.115977 26.419948 26.419948 0 0 0-0.341999-3.415993 10.925979 10.925979 0 0 0-1.019998-3.077994zM175.625657 790.014457c-0.681999 0.849998-1.365997 1.699997-2.049996 2.557995a13.159974 13.159974 0 0 0-1.541997 3.065994 10.829979 10.829979 0 0 0-1.015998 3.073994 25.109951 25.109951 0 0 0-0.341999 3.417993 17.139967 17.139967 0 0 0 29.183943 12.117977 17.305966 17.305966 0 0 0 0-24.233953 17.863965 17.863965 0 0 0-24.233953 0zM271.709469 795.640446a13.043975 13.043975 0 0 0-1.541997-3.065994 24.879951 24.879951 0 0 0-2.041996-2.557995 17.865965 17.865965 0 0 0-24.233952 0c-0.737999 0.807998-1.421997 1.661997-2.049996 2.557995a13.159974 13.159974 0 0 0-1.541997 3.065994 10.767979 10.767979 0 0 0-1.015998 3.073994 25.109951 25.109951 0 0 0-0.342 3.417993 17.933965 17.933965 0 0 0 4.949991 12.117977 19.825961 19.825961 0 0 0 5.625989 3.583993 16.079969 16.079969 0 0 0 12.973974 0 19.865961 19.865961 0 0 0 5.633989-3.583993 17.975965 17.975965 0 0 0 4.949991-12.117977 26.419948 26.419948 0 0 0-0.342-3.415993 11.071978 11.071978 0 0 0-1.023998-3.075994z" fill="#bfbfbf" p-id="23360"></path><path d="M989.874067 597.332833h-307.1994c-18.841963 0.022-34.111933 15.28997-34.133934 34.133934V716.7986h-70.689862a68.159867 68.159867 0 0 0-48.775904-48.775905v-138.955728h307.1994c28.263945-0.03 51.1699-22.935955 51.1999-51.1999V51.1999c-0.03-28.263945-22.935955-51.1699-51.1999-51.1999H187.743633c-28.263945 0.03-51.1699 22.935955-51.1999 51.1999v426.665167c0.03 28.263945 22.935955 51.1699 51.1999 51.1999h307.1994v138.955728a68.159867 68.159867 0 0 0-48.775904 48.775905h-70.689862v-85.333833c-0.022-18.841963-15.28997-34.111933-34.133934-34.133934h-307.1994C15.29997 597.352833 0.032 612.622803 0.01 631.464767v221.865566c0.022 18.841963 15.28997 34.111933 34.133933 34.133934h85.333834V921.5982c-28.263945 0.03-51.1699 22.935955-51.1999 51.1999v34.133933a17.059967 17.059967 0 0 0 17.067966 17.067967h204.7996a17.059967 17.059967 0 0 0 17.067967-17.067967V972.7981c-0.03-28.263945-22.935955-51.1699-51.1999-51.1999v-34.133933h85.333833c18.841963-0.022 34.111933-15.28997 34.133934-34.133934v-102.3998h70.689862c7.653985 30.117941 34.767932 51.2019 65.843871 51.2019s58.187886-21.083959 65.843871-51.2019h70.689862v102.3998c0.022 18.841963 15.29197 34.111933 34.133934 34.133934H768.0085V921.5982c-28.263945 0.03-51.1699 22.935955-51.1999 51.1999v34.133933a17.059967 17.059967 0 0 0 17.067967 17.067967h204.7996a17.059967 17.059967 0 0 0 17.067966-17.067967V972.7981c-0.03-28.263945-22.935955-51.1699-51.1999-51.1999v-34.133933h85.333834c18.841963-0.022 34.111933-15.28997 34.133933-34.133934V631.464767c-0.026-18.841963-15.29397-34.111933-34.137933-34.131934zM273.075467 972.7981v17.065967H102.4098V972.7981a17.079967 17.079967 0 0 1 17.065967-17.065967H256.0095a17.079967 17.079967 0 0 1 17.065967 17.065967zM153.6097 921.5982v-34.133933h68.265867V921.5982H153.6097z m85.333833-68.265867h-204.7996V631.464767h307.1994l0.008 102.3618-0.008 0.038 0.008 0.038 0.01 119.427766h-102.4178z m-51.1999-358.3993a17.079967 17.079967 0 0 1-17.065966-17.065966V51.1999a17.079967 17.079967 0 0 1 17.065966-17.065967h648.532734a17.079967 17.079967 0 0 1 17.065966 17.065967v426.665167a17.079967 17.079967 0 0 1-17.065966 17.065966H187.743633zM512.009 767.9985c-18.851963 0-34.133933-15.28197-34.133933-34.133933s15.28197-34.133933 34.133933-34.133934 34.133933 15.28197 34.133933 34.133934c-0.022 18.843963-15.29197 34.111933-34.133933 34.133933z m409.5992 204.7996v17.065967h-170.665667V972.7981a17.079967 17.079967 0 0 1 17.065967-17.065967h136.533733a17.079967 17.079967 0 0 1 17.065967 17.065967z m-119.465767-51.1999v-34.133933H870.4083V921.5982h-68.265867z m85.331834-68.265867h-204.7996V631.464767h307.1994l0.018 221.865566h-102.4178z" fill="#bfbfbf" p-id="23361"></path><path d="M783.708469 795.640446a13.043975 13.043975 0 0 0-1.541997-3.065994c-0.673999-0.857998-1.357997-1.707997-2.041996-2.557995-0.857998-0.681999-1.707997-1.365997-2.557995-2.049996a12.995975 12.995975 0 0 0-3.075994-1.541997 10.767979 10.767979 0 0 0-3.073994-1.015998A17.075967 17.075967 0 1 0 768.0085 819.2004c1.141998-0.04 2.281996-0.154 3.407993-0.341999a11.103978 11.103978 0 0 0 3.073994-1.023998 13.033975 13.033975 0 0 0 3.075994-1.541997c0.849998-0.673999 1.699997-1.357997 2.557995-2.041996a17.975965 17.975965 0 0 0 4.949991-12.115977 26.419948 26.419948 0 0 0-0.342-3.415993 11.063978 11.063978 0 0 0-1.023998-3.077994zM824.15839 790.014457c-0.681999 0.849998-1.365997 1.699997-2.049996 2.557995a13.159974 13.159974 0 0 0-1.541997 3.065994 10.767979 10.767979 0 0 0-1.015998 3.073994 24.793952 24.793952 0 0 0-0.339999 3.417993 17.139967 17.139967 0 0 0 29.183943 12.117977 17.305966 17.305966 0 0 0 0-24.233953 17.865965 17.865965 0 0 0-24.235953 0zM920.242203 795.640446a13.043975 13.043975 0 0 0-1.541997-3.065994 24.879951 24.879951 0 0 0-2.041996-2.557995 17.865965 17.865965 0 0 0-24.233953 0c-0.737999 0.807998-1.421997 1.661997-2.049996 2.557995a13.159974 13.159974 0 0 0-1.541997 3.065994 10.767979 10.767979 0 0 0-1.015998 3.073994 25.109951 25.109951 0 0 0-0.341999 3.417993 17.933965 17.933965 0 0 0 4.94999 12.117977 19.825961 19.825961 0 0 0 5.625989 3.583993 16.079969 16.079969 0 0 0 12.973975 0 19.865961 19.865961 0 0 0 5.633989-3.583993 17.975965 17.975965 0 0 0 4.94999-12.117977 26.419948 26.419948 0 0 0-0.341999-3.415993 11.139978 11.139978 0 0 0-1.023998-3.075994z" fill="#bfbfbf" p-id="23362"></path></svg>