<?xml version="1.0" standalone="no"?><!DOCTYPE svg PUBLIC "-//W3C//DTD SVG 1.1//EN" "http://www.w3.org/Graphics/SVG/1.1/DTD/svg11.dtd"><svg t="1714662303298" class="icon" viewBox="0 0 1024 1024" version="1.1" xmlns="http://www.w3.org/2000/svg" p-id="34875" xmlns:xlink="http://www.w3.org/1999/xlink" width="16" height="16"><path d="M583.8 449.5l2.2 50.7-35.2 66.1-55.1 107.9-11 90.4 39.6 127.8 90.4 50.7h136.6l127.7-97 57.3-152-132.2-160.8-37.5-90.3-182.8 6.5z m0 0" fill="#bfbfbf" p-id="34876"></path><path d="M896.6 575.1c-35.2-50.7-63.9-81.5-79.3-145.4-15.4-63.9 4.4-46.3-8.8-101.3-5.1-23-14.8-44.8-28.6-63.9-13.2-15.4-28.6-24.2-37.5-26.4-19.8-11.1-66.1-28.7-123.4 2.2-59.4 30.8-52.8 96.9-41.8 231.3 0 8.8-2.2 19.8-6.6 28.6-8.8 19.9-24.3 37.5-37.5 52.9-15.4 22-30.8 44.1-41.8 68.3-26.4 50.7-50.7 114.5-44.1 138.8C458.2 758 597 969.4 597 973.8c8.8-2.2 46.3-2.2 79.3-2.2 46.3-2.2 72.7-4.4 110.2 4.4 0-6.7-2.2-13.2-2.2-19.9 0-13.2 2.2-24.2 4.4-39.6 2.2-11 4.4-22 6.6-35.3-22 19.9-61.7 41.9-99.1 48.5-33.1 6.6-88.1-4.4-114.6-37.5 2.2 0 6.7 0 8.8-2.2 6.6-2.2 13.2-4.4 15.4-8.8 6.6-11 2.2-22-2.2-28.6-4.4-6.6-37.4-30.8-52.8-44-15.5-13.2-24.3-19.8-33.1-28.6l-17.6-17.6c-4.4-4.4-6.7-8.8-8.8-11-4.4-11-6.6-24.2-4.4-41.8 2.2-24.2 11-44.1 22-66.1 4.9-9 10-17.8 15.4-26.4 5.4-8.6-37.5 92.5-17.6 121.1 0 0 2.2-28.6 11-57.3 6.6-19.8 17.6-48.4 30.8-63.9 13.2-15.4 46.3-72.7 48.4-107.9 0-15.4 2.2-30.9 2.2-41.9-8.8-8.8 145.4-30.8 154.2-6.6 2.2 8.8 33.1 88.1 50.7 130 8.8 19.8 19.8 37.4 26.4 59.5 6.6 24.2 11 57.3 11 90.3 0 6.6 0 17.6-2.2 28.7 4.4 0 90.3-92.6-11-169.7 0 0 61.7 28.6 63.9 85.9 2.2 46.3-17.6 83.7-22 90.3 2.2 0 46.3 19.9 48.4 19.9 8.8 0 26.4-6.6 26.4-6.6 2.3-6.7 8.8-24.3 8.8-30.9 15.6-50.7-21.9-132.2-57.1-182.9z m0 0" fill="#bfbfbf" p-id="34877"></path><path d="M588.2 385.7c0 15.7 5.5 30.3 14.4 38.1 7.9 7.9 20.7 7.9 28.6 0 8.8-7.9 14.4-22.4 14.4-38.1 0-15.8-5.5-30.3-14.4-38.2-7.9-7.9-20.7-7.9-28.6 0-8.9 7.9-14.4 22.4-14.4 38.2z m90.3-2.2c0 18 7.1 34.8 18.7 43.9 11.6 9 25.8 9 37.5 0 11.6-9.1 18.7-25.8 18.7-43.9 0-28-16.8-50.7-37.5-50.7-20.6 0-37.4 22.7-37.4 50.7z m0 0" fill="#bfbfbf" p-id="34878"></path><path d="M620.9 416.8c8.4-1 13.8-13.7 11.9-28.1-1.8-14.5-10.2-25.4-18.6-24.3-8.4 1-13.8 13.7-12 28.1 1.9 14.5 10.3 25.4 18.7 24.3z m70.8-24.5c0 15.8 9.9 28.6 22 28.6s22-12.9 22-28.7c0-15.8-9.9-28.6-22-28.6s-22 12.9-22 28.7z m0 0" fill="#bfbfbf" p-id="34879"></path><path d="M1006.8 877c-8.8-4.4-24.2-11-37.4-30.9-6.6-11-4.4-41.9-15.4-55.1-6.6-8.8-15.4-4.4-17.6-4.4-19.8 4.4-66.1 35.2-96.9 0-4.4-4.4-11-11-22-11s-15.4 4.4-19.9 13.2c-4.4 8.8-4.4 15.5-4.4 37.5 0 17.6 0 37.4-2.2 52.9-4.4 37.4-11 59.5-11 81.5 0 24.2 6.7 39.6 15.4 46.3 6.6 6.6 17.6 11 41.9 11 24.2 0 39.6-8.8 55.1-24.2 11-11 19.8-15.4 50.6-37.5 24.2-15.4 61.7-35.2 68.3-41.8 4.4-4.4 11-6.6 11-19.8-0.1-11.1-8.9-15.6-15.5-17.7z m-442.9 6.6c-22-35.2-24.2-41.9-39.6-63.9-13.2-22-41.9-63.9-59.5-63.9-13.2 0-19.8 6.6-28.6 15.4s-17.6 28.6-33.1 39.6c-13.2 11-50.7 8.8-59.5 22-8.8 13.2 8.8 33.1 8.8 66.1 0 13.2-11 22-13.2 30.9-2.2 11-4.4 17.6 0 26.4 8.8 13.2 19.8 17.6 94.7 33.1 39.7 8.8 77.1 30.8 101.4 33.1 24.2 2.2 66 0 66-59.5 2.4-35.3-17.5-44.1-37.4-79.3z m42-398.8c-13.2-8.8-24.3-17.6-24.3-30.8s8.8-17.6 22-28.6c2.2-2.2 26.4-24.2 50.7-24.2 24.2 0 52.9 15.4 63.9 19.9 19.8 4.4 39.6 8.8 37.4 24.2-2.2 22-4.4 26.4-26.4 37.4-15.4 4.4-44.1 28.6-63.9 28.6-8.8 0-22 0-30.8-2.2-6.7-2.3-17.7-13.2-28.6-24.3z m0 0" fill="#bfbfbf" p-id="34880"></path><path d="M601.4 467.1c5 4.9 11 8.7 17.7 11 4.4 2.2 11 4.4 11 4.4h19.8c11 0 26.4-4.4 41.9-13.2 15.4-6.6 17.6-11 28.6-15.4 11-6.6 22-13.2 17.6-15.4-4.4-2.2-8.8 0-24.2 8.8-13.2 8.8-24.2 13.2-37.4 19.8-6.6 2.2-15.4 6.7-22 6.7h-19.8c-6.7 0-11-2.2-17.7-4.4-4.4-2.2-6.6-4.4-8.8-4.4-4.4-2.2-13.2-11-17.6-13.2 0 0-4.4 0-2.2 2.2l13.1 13.1z m66.1-48.4c2.2 4.4 6.6 4.4 8.8 6.6 2.2 2.2 4.4 2.2 4.4 2.2 2.2-2.2 0-6.6-2.2-6.6 0-4.4-11-4.4-11-2.2z m-35.2 4.4c0 2.2 4.4 4.4 4.4 2.2 2.2-2.2 4.4-4.4 6.6-4.4 4.4-2.2 2.2-4.4-4.4-4.4-4.4 2.2-4.4 4.4-6.6 6.6z m0 0" fill="#bfbfbf" p-id="34881"></path><path d="M845.9 813.1v6.6c4.4 8.8 15.5 11 24.3 11 13.2 0 26.4-8.8 33.1-17.6 0-2.2 2.2-4.4 4.4-6.6 4.4-6.7 6.6-11 8.8-13.2 0 0-2.2-2.3-2.2-4.4-2.2-4.4-8.8-8.8-17.6-11-7.1-2.3-14.5-3.8-22-4.4-19.9-2.2-30.9 4.4-37.5 11 0 0 2.2 0 2.2 2.2 4.4 3.9 6.8 9.6 6.6 15.4 2.2 4.4 0 6.5-0.1 11z m0 0" fill="#bfbfbf" p-id="34882"></path><path d="M287.7 21.2c-140 0-253.9 111-253.9 247.5 0 70.4 32.4 137.2 85.2 185.2 4.5 4 10.5 5.7 16.4 4.7 5.9-1 11-4.7 13.8-10l1.1-2.2c3.9-7.7 2-17.1-4.7-22.6-46.9-39.2-71.4-95.4-71.4-157.5 0-115.7 97.3-208.2 213.5-208.2 116.3 0 213.5 94.9 213.5 208.2 0 60.2-26.6 116.4-72.2 157.4-6.3 5.6-8 14.6-4.2 22.1l1.8 3.5c2.7 5.2 7.7 8.9 13.5 10 5.8 1.1 11.9-0.5 16.4-4.4 54.4-46.8 85.1-115.6 85.1-186.3 0-136.4-113.9-247.4-253.9-247.4z m0 0" fill="#bfbfbf" p-id="34883"></path><path d="M326.9 322.2c-3.2-7.1-1.6-15.6 4.2-20.9 11.1-10.8 17.2-24.1 17.2-38.9 0-30.6-27.2-56.5-59.4-56.5s-59.3 25.9-59.3 56.5c0 14.8 6.1 28.1 17.1 38.8 5.8 5.6 7.4 13.9 4.1 21.1l-97.9 210.6c-4 9.4-4.8 17.3-2.4 24.9 1.2 3.8 3.7 7.1 6.9 9.5 7.2 5.2 16 8.1 25.1 8h212.7c12.4 0 22.3-4.7 27.2-11.8 5-7 5-18.8 0-30.6l-95.5-210.7z m58.5 220H192.5L289 332.9l96.4 209.3zM261.7 262.3c0-14.3 12.2-25.9 27.2-25.9s27.2 11.6 27.2 25.9c0 14.3-12.2 25.9-27.2 25.9-14.9-0.1-27-11.7-27.2-25.9z m0 0" fill="#bfbfbf" p-id="34884"></path><path d="M384.1 381.6l0.1 0.2c3.2 5.1 8.5 8.3 14.4 8.7 5.9 0.3 11.6-2.3 15.3-7 23.2-29.4 35.7-65.9 35.4-103.3 0-91.6-72.8-166.7-161.6-166.7-88.7 0-161.6 75.1-161.6 166.6 0 37.6 11.7 72.2 33.8 101.3 3.8 5 9.8 7.7 16.1 7.2 6.2-0.6 11.7-4.4 14.6-9.9 3.5-6.8 2.7-14.9-2-20.9-17.4-22.5-26.1-51.2-26.1-80 0-70.4 56.9-129.1 125.2-129.1 68.2 0 125.1 58.7 125.1 129.1 0 30.8-8.7 57.9-27.6 81.5-5 6.5-5.5 15.4-1.1 22.3z m0 0" fill="#bfbfbf" p-id="34885"></path></svg>