<?xml version="1.0" standalone="no"?><!DOCTYPE svg PUBLIC "-//W3C//DTD SVG 1.1//EN" "http://www.w3.org/Graphics/SVG/1.1/DTD/svg11.dtd"><svg t="1714661180466" class="icon" viewBox="0 0 1024 1024" version="1.1" xmlns="http://www.w3.org/2000/svg" p-id="8586" xmlns:xlink="http://www.w3.org/1999/xlink" width="16" height="16"><path d="M753.066667 711.04l80.853333-18.986667c1.066667-3.413333 2.346667-6.826667 4.266667-9.813333l-46.506667-60.8-38.613333 89.6z" p-id="8587" fill="#bfbfbf"></path><path d="M789.333333 469.333333a192 192 0 1 0 0.021334 384.021334A192 192 0 0 0 789.333333 469.333333z m85.333334 277.333334c-12.16 0-23.04-5.12-30.72-13.226667l-92.373334 21.546667c-3.84 19.626667-21.12 34.133333-41.813333 34.133333-23.466667 0-42.666667-19.2-42.666667-42.666667s18.986667-42.453333 42.453334-42.666666l44.8-103.68c-4.906667-6.613333-7.68-15.146667-7.68-24.106667 0-23.466667 19.2-42.666667 42.666666-42.666667s42.666667 19.2 42.666667 42.666667c0 7.466667-2.133333 14.506667-5.546667 20.48L875.946667 661.333333c23.04 0.853333 41.386667 19.626667 41.386666 42.666667 0 23.466667-19.2 42.666667-42.666666 42.666667z" p-id="8588" fill="#bfbfbf"></path><path d="M533.333333 746.666667v-10.666667c0-17.706667-14.293333-32-32-32H426.666667v-42.666667h107.733333c-0.64-7.04-1.066667-14.08-1.066667-21.333333 0-134.186667 103.253333-244.053333 234.666667-254.933333V256c0-47.146667-38.186667-85.333333-85.333333-85.333333H128c-47.146667 0-85.333333 38.186667-85.333333 85.333333v320c0 47.146667 38.186667 85.333333 85.333333 85.333333h234.666667v42.666667h-74.666667c-17.706667 0-32 14.293333-32 32v10.666667H74.666667c-17.706667 0-32 14.293333-32 32S56.96 810.666667 74.666667 810.666667H256v10.666666c0 17.706667 14.293333 32 32 32h213.333333c17.706667 0 32-14.293333 32-32V810.666667h44.586667c8.106667 0 13.013333-9.173333 8.106667-15.573334-11.306667-14.933333-21.12-31.146667-29.226667-48.426666H533.333333z m-208.426666-298.026667l-66.133334 84.053333c-6.4 7.466667-15.36 11.093333-24.32 11.093334a31.850667 31.850667 0 0 1-24.32-52.693334l85.333334-106.666666c10.88-12.8 29.653333-14.933333 43.306666-4.906667l115.2 78.72 97.92-138.026667A32.064 32.064 0 0 1 599.893333 362.666667l-117.333333 160a32 32 0 0 1-42.88 4.693333l-114.773333-78.72z" p-id="8589" fill="#bfbfbf"></path></svg>