<?xml version="1.0" standalone="no"?><!DOCTYPE svg PUBLIC "-//W3C//DTD SVG 1.1//EN" "http://www.w3.org/Graphics/SVG/1.1/DTD/svg11.dtd"><svg t="1714663259425" class="icon" viewBox="0 0 1024 1024" version="1.1" xmlns="http://www.w3.org/2000/svg" p-id="67499" xmlns:xlink="http://www.w3.org/1999/xlink" width="16" height="16"><path d="M269.536 442.752A268.16 268.16 0 0 0 336 713.12c104.704 104.704 273.984 105.056 378.08 0.96s103.744-273.376-0.96-378.08c-69.632-69.632-172.736-93.952-270.336-66.464l-15.68-50.688a321.056 321.056 0 0 1 323.744 79.392c125.312 125.312 125.728 328.256 0.704 453.248-124.992 125.024-327.936 124.608-453.248-0.704C214.72 667.2 184.768 546.208 218.88 427.04l50.688 15.68z m128.768 56.96a130.976 130.976 0 0 0 34.848 122.016c51.36 51.328 135.2 50.816 187.296-1.28 52.096-52.096 52.608-135.936 1.28-187.296-30.592-30.592-75.296-43.104-122.016-34.88l-11.392-51.808a183.84 183.84 0 0 1 171.104 48.96c72.096 72.096 71.36 189.6-1.536 262.464-72.864 72.896-190.4 73.6-262.432 1.536C352 616 333.824 555.552 346.496 488.288l51.808 11.392z m-142.72-338.4l112.384 112.32-5.824 50.784 151.104 151.04c16.544-4.448 35.072-3.52 52.896 15.68 17.856 19.2 18.944 52.256-1.888 73.088a53.12 53.12 0 0 1-75.168 0.256 52.896 52.896 0 0 1-13.568-51.296l-151.072-151.04-50.752 5.792-112.352-112.352 84.576-9.696 9.696-84.576z" p-id="67500" fill="#bfbfbf"></path></svg>