<?xml version="1.0" standalone="no"?><!DOCTYPE svg PUBLIC "-//W3C//DTD SVG 1.1//EN" "http://www.w3.org/Graphics/SVG/1.1/DTD/svg11.dtd"><svg t="1714661461372" class="icon" viewBox="0 0 1024 1024" version="1.1" xmlns="http://www.w3.org/2000/svg" p-id="13567" xmlns:xlink="http://www.w3.org/1999/xlink" width="16" height="16"><path d="M512 117.333333c-28.074667 0-55.68 9.045333-124.586667 32.597334l-24.405333 8.362666c-64.554667 22.101333-111.616 38.229333-144.64 51.626667a304.512 304.512 0 0 0-36.864 17.237333 70.314667 70.314667 0 0 0-8.874667 5.930667 16.469333 16.469333 0 0 0-2.346666 2.133333 17.450667 17.450667 0 0 0-1.365334 3.157334c-0.853333 2.389333-1.792 5.802667-2.688 10.581333a317.354667 317.354667 0 0 0-4.266666 40.874667c-1.962667 35.882667-1.962667 85.973333-1.962667 154.624v67.157333c0 220.8 165.12 329.514667 275.157333 377.557333 15.829333 6.912 25.002667 10.837333 35.2 13.44 9.728 2.517333 21.589333 4.053333 41.642667 4.053334s31.914667-1.536 41.642667-4.053334c10.24-2.56 19.370667-6.528 35.2-13.44 110.08-48.085333 275.157333-156.757333 275.157333-377.557333v-67.157333c0-68.650667 0-118.741333-1.962667-154.624a316.714667 316.714667 0 0 0-4.266666-40.874667 74.154667 74.154667 0 0 0-2.688-10.581333 17.408 17.408 0 0 0-1.365334-3.157334 16.426667 16.426667 0 0 0-2.346666-2.133333 69.973333 69.973333 0 0 0-8.874667-5.973333 304.426667 304.426667 0 0 0-36.864-17.152c-33.024-13.44-80.085333-29.568-144.64-51.626667l-24.448-8.405333C567.68 126.378667 540.074667 117.333333 512 117.333333z m-139.818667-29.824c61.610667-21.077333 99.84-34.176 139.818667-34.176 40.021333 0 78.208 13.098667 139.818667 34.176l5.461333 1.877334 25.557333 8.746666c63.189333 21.632 112 38.357333 146.901334 52.522667 17.578667 7.125333 32.725333 14.08 44.885333 21.12 11.733333 6.826667 23.466667 15.317333 31.445333 26.709333 7.893333 11.221333 11.989333 25.045333 14.549334 38.4 2.688 13.824 4.266667 30.421333 5.333333 49.493334 2.048 37.802667 2.048 89.685333 2.048 156.928v68.309333c0 260.309333-196.608 385.109333-313.514667 436.224l-1.152 0.469333c-14.506667 6.357333-28.16 12.288-43.818666 16.298667-16.512 4.266667-34.090667 6.058667-57.514667 6.058667-23.466667 0-40.96-1.792-57.514667-6.058667-15.658667-4.010667-29.312-9.941333-43.818666-16.298667l-1.152-0.469333C292.608 896.725333 96 771.925333 96 511.573333V443.306667c0-67.242667 0-119.125333 2.048-156.970667 1.066667-19.029333 2.645333-35.626667 5.333333-49.493333 2.56-13.312 6.656-27.136 14.506667-38.4 8.021333-11.349333 19.754667-19.84 31.488-26.666667 12.16-7.04 27.306667-13.994667 44.885333-21.12 34.901333-14.165333 83.712-30.890667 146.901334-52.48l25.557333-8.789333 5.461333-1.877334zM512 266.666667a245.333333 245.333333 0 1 0 0 490.666666 245.333333 245.333333 0 0 0 0-490.666666z m0 64c0.170667 0 0.896 0 2.389333 0.768a27.818667 27.818667 0 0 1 7.253334 5.717333c6.528 6.741333 13.994667 18.389333 20.992 35.882667 6.912 17.237333 12.629333 38.442667 16.64 62.549333 2.346667 14.250667 4.053333 29.141333 5.034666 44.416h-104.618666c0.981333-15.274667 2.688-30.165333 5.034666-44.373333a304.981333 304.981333 0 0 1 16.64-62.592c6.997333-17.493333 14.506667-29.141333 20.992-35.882667a27.818667 27.818667 0 0 1 7.253334-5.717333A5.461333 5.461333 0 0 1 512 330.666667z m116.437333 149.333333a518.272 518.272 0 0 0-6.016-54.869333 379.818667 379.818667 0 0 0-17.706666-68.992 181.248 181.248 0 0 1 85.76 123.861333H628.48z m-64.128 64a450.56 450.56 0 0 1-5.034666 44.373333 304.981333 304.981333 0 0 1-16.64 62.592c-6.997333 17.493333-14.506667 29.141333-20.992 35.882667a27.818667 27.818667 0 0 1-7.253334 5.717333 5.461333 5.461333 0 0 1-2.389333 0.768c-0.170667 0-0.896 0-2.389333-0.768a27.818667 27.818667 0 0 1-7.253334-5.717333c-6.528-6.741333-13.994667-18.389333-20.992-35.882667a304.981333 304.981333 0 0 1-16.64-62.549333 450.56 450.56 0 0 1-5.034666-44.416h104.618666z m40.405334 123.861333c7.68-20.736 13.568-44.117333 17.706666-68.992 2.901333-17.706667 4.949333-36.138667 5.973334-54.869333h62.08a181.205333 181.205333 0 0 1-85.76 123.861333z m-185.429334 0a181.333333 181.333333 0 0 1-85.76-123.861333H395.52c1.066667 18.730667 3.114667 37.162667 6.016 54.869333a379.733333 379.733333 0 0 0 17.706667 68.992z m-85.76-187.861333a181.333333 181.333333 0 0 1 85.76-123.861333 379.733333 379.733333 0 0 0-17.706666 68.992c-2.901333 17.706667-4.949333 36.138667-5.973334 54.869333H333.482667z" p-id="13568" fill="#bfbfbf"></path></svg>