<?xml version="1.0" standalone="no"?><!DOCTYPE svg PUBLIC "-//W3C//DTD SVG 1.1//EN" "http://www.w3.org/Graphics/SVG/1.1/DTD/svg11.dtd"><svg t="1714662562058" class="icon" viewBox="0 0 1024 1024" version="1.1" xmlns="http://www.w3.org/2000/svg" p-id="44260" xmlns:xlink="http://www.w3.org/1999/xlink" width="16" height="16"><path d="M243.587879 453.042424s63.612121-55.854545 252.896969-55.854545c173.769697 0 223.418182 38.787879 273.066667 55.854545l-259.10303 125.672728-266.860606-125.672728z" fill="#bfbfbf" p-id="44261"></path><path d="M217.212121 620.606061c1.551515 24.824242 24.824242 12.412121 35.684849 4.654545 10.860606-7.757576 13.963636-1.551515 13.963636-15.515151l1.551515-27.927273c-15.515152-1.551515-32.581818 1.551515-44.993939 12.412121-6.206061 4.654545-18.618182 20.169697-6.206061 26.375758" fill="#bfbfbf" p-id="44262"></path><path d="M217.212121 620.606061c3.10303-1.551515 7.757576-1.551515 9.309091-4.654546" fill="#bfbfbf" p-id="44263"></path><path d="M273.066667 333.575758c-93.090909-26.375758-23.272727-144.290909 51.2-94.642425l-51.2 94.642425z m411.151515-103.951516c72.921212-51.2 139.636364 65.163636 54.30303 93.09091l-54.30303-93.09091z" fill="#bfbfbf" p-id="44264"></path><path d="M699.733333 918.49697c18.618182 10.860606 52.751515 46.545455 24.824243 63.612121-26.375758 24.824242-41.890909-26.375758-65.163637-34.133333 10.860606-15.515152 23.272727-27.927273 40.339394-29.478788z m-332.024242 38.787878c-21.721212 3.10303-34.133333 23.272727-52.751515 32.581819-17.066667 10.860606-23.272727-3.10303-24.824243-6.206061-3.10303-1.551515-3.10303 1.551515-6.20606-3.10303-15.515152-24.824242 17.066667-43.442424 34.133333-55.854546 21.721212-4.654545 37.236364 15.515152 49.648485 32.581818z" fill="#bfbfbf" p-id="44265"></path><path d="M276.169697 300.993939c-12.412121-6.206061-21.721212-15.515152-13.963636-29.478787 6.206061-12.412121 20.169697-12.412121 32.581818-4.654546l-18.618182 34.133333z m443.733333-12.412121c12.412121-6.206061 21.721212-15.515152 13.963637-29.478788-6.206061-12.412121-20.169697-12.412121-32.581819-4.654545l18.618182 34.133333z" fill="#bfbfbf" p-id="44266"></path><path d="M803.684848 617.50303c-1.551515 24.824242-24.824242 12.412121-35.684848 4.654546-10.860606-7.757576-13.963636-1.551515-13.963636-15.515152l-1.551516-27.927272c15.515152-1.551515 32.581818 1.551515 44.99394 12.412121 6.206061 4.654545 18.618182 20.169697 6.20606 26.375757" fill="#bfbfbf" p-id="44267"></path><path d="M803.684848 617.50303c-3.10303-1.551515-7.757576-1.551515-9.30909-4.654545" fill="#bfbfbf" p-id="44268"></path><path d="M501.139394 179.975758c93.090909 0 179.975758 13.963636 224.969697 102.4 40.339394 99.29697 26.375758 206.351515 32.581818 311.854545 4.654545 89.987879 17.066667 195.490909-24.824242 279.272727-43.442424 88.436364-155.151515 110.157576-245.139394 107.054546-71.369697-3.10303-158.254545-26.375758-198.59394-91.539394-46.545455-76.024242-24.824242-190.836364-21.721212-274.618182 4.654545-100.848485-27.927273-201.69697 6.206061-300.993939 34.133333-102.4 127.224242-125.672727 226.521212-133.430303" fill="#bfbfbf" p-id="44269"></path><path d="M516.654545 304.09697c17.066667 96.193939 175.321212 71.369697 152.048485-26.375758-20.169697-86.884848-156.70303-63.612121-152.048485 26.375758m-187.733333 15.515151c21.721212 83.781818 156.70303 62.060606 152.048485-21.721212-7.757576-100.848485-173.769697-80.678788-152.048485 21.721212m218.763636 97.745455c0 12.412121 3.10303 24.824242 0 40.339394-3.10303 6.206061-9.309091 6.206061-15.515151 9.309091-7.757576-1.551515-13.963636-6.206061-17.066667-12.412122-1.551515-15.515152 0-29.478788 1.551515-44.993939l31.030303 7.757576z" fill="#bfbfbf" p-id="44270"></path><path d="M342.884848 305.648485c0-13.963636 10.860606-24.824242 23.272728-24.824243s23.272727 10.860606 23.272727 24.824243-10.860606 24.824242-23.272727 24.824242-23.272727-10.860606-23.272728-24.824242z" p-id="44271" fill="#bfbfbf"></path><path d="M370.812121 311.854545c0-3.10303 3.10303-6.206061 4.654546-6.20606 3.10303 0 4.654545 3.10303 4.654545 6.20606s-3.10303 6.206061-4.654545 6.206061c-3.10303 0-4.654545-3.10303-4.654546-6.206061z" fill="#bfbfbf" p-id="44272"></path><path d="M533.721212 299.442424c0-13.963636 9.309091-24.824242 21.721212-24.824242 12.412121 0 21.721212 10.860606 21.721212 24.824242s-9.309091 24.824242-21.721212 24.824243c-10.860606 0-21.721212-10.860606-21.721212-24.824243z" p-id="44273" fill="#bfbfbf"></path><path d="M561.648485 305.648485c0-3.10303 3.10303-6.206061 4.654545-6.206061 3.10303 0 4.654545 3.10303 4.654546 6.206061s-3.10303 6.206061-4.654546 6.20606c-3.10303 0-4.654545-3.10303-4.654545-6.20606zM482.521212 418.909091c-9.309091 23.272727 6.206061 71.369697 32.581818 37.236364-1.551515-15.515152 0-29.478788 1.551515-44.99394l-34.133333 7.757576z" fill="#bfbfbf" p-id="44274"></path><path d="M480.969697 372.363636c-18.618182 1.551515-34.133333 23.272727-23.272727 40.339394 12.412121 23.272727 41.890909-1.551515 58.957575 0 20.169697 0 37.236364 21.721212 52.751516 3.103031 18.618182-20.169697-7.757576-38.787879-27.927273-48.09697l-60.509091 4.654545z" fill="#bfbfbf" p-id="44275"></path><path d="M243.587879 453.042424l6.20606 89.987879c0 27.927273 26.375758 9.309091 27.927273 52.751515 1.551515 43.442424-15.515152 34.133333-24.824242 55.854546-9.309091 21.721212-15.515152 119.466667-15.515152 119.466666s9.309091 18.618182 38.787879 35.684849c29.478788 17.066667 76.024242 26.375758 116.363636 24.824242 40.339394-1.551515 69.818182-10.860606 76.024243-15.515151s18.618182-20.169697 23.272727-31.030303c4.654545-12.412121 13.963636-108.606061 13.963636-162.909091 0-55.854545-9.309091-107.054545-9.309091-107.054546l-252.896969-62.060606z" fill="#bfbfbf" p-id="44276"></path><path d="M501.139394 723.006061c-119.466667 12.412121-257.551515-24.824242-257.551515-24.824243s1.551515-37.236364 10.860606-51.2c124.121212 38.787879 249.793939 26.375758 249.793939 26.375758 1.551515 18.618182 0 32.581818-3.10303 49.648485z m-15.515152 72.921212c-119.466667 13.963636-249.793939-24.824242-249.793939-24.824243s0-35.684848 4.654545-51.2c124.121212 38.787879 257.551515 29.478788 257.551516 29.478788-1.551515 17.066667-4.654545 35.684848-12.412122 46.545455z" fill="#bfbfbf" p-id="44277"></path><path d="M769.551515 453.042424V543.030303c0 27.927273-15.515152 9.309091-17.066667 52.751515-1.551515 43.442424 15.515152 34.133333 24.824243 55.854546 9.309091 21.721212 15.515152 119.466667 15.515151 119.466666S783.515152 791.272727 754.036364 806.787879c-29.478788 17.066667-77.575758 26.375758-117.915152 24.824242-40.339394-1.551515-69.818182-10.860606-77.575757-15.515151s-20.169697-20.169697-24.824243-31.030303-13.963636-108.606061-13.963636-162.909091c0-55.854545 9.309091-107.054545 9.309091-107.054546l240.484848-62.060606z" fill="#bfbfbf" p-id="44278"></path><path d="M525.963636 723.006061c121.018182 13.963636 260.654545-23.272727 260.654546-23.272728s-1.551515-37.236364-10.860606-51.2c-125.672727 38.787879-252.89697 26.375758-252.89697 26.375758-1.551515 17.066667 0 31.030303 3.10303 48.09697z m13.963637 72.921212c121.018182 13.963636 252.89697-24.824242 252.896969-24.824243s0-35.684848-4.654545-51.2c-125.672727 38.787879-260.654545 29.478788-260.654545 29.478788 3.10303 17.066667 4.654545 35.684848 12.412121 46.545455z" fill="#bfbfbf" p-id="44279"></path><path d="M817.648485 569.406061c-3.10303 7.757576-10.860606 10.860606-17.066667 7.757575l-3.10303-3.10303c-6.206061-3.10303-6.206061-10.860606-3.10303-18.618182l85.333333-159.80606c3.10303-7.757576 10.860606-10.860606 17.066667-7.757576l4.654545 1.551515c6.206061 3.10303 6.206061 10.860606 3.10303 18.618182l-86.884848 161.357576z" fill="#bfbfbf" p-id="44280"></path><path d="M778.860606 643.878788c-1.551515 4.654545-7.757576 4.654545-13.963636 1.551515l-4.654546-1.551515c-6.206061-3.10303-7.757576-9.309091-6.20606-12.412121l40.339394-74.472728c1.551515-4.654545 7.757576-4.654545 13.963636-1.551515l4.654545 1.551515c6.206061 3.10303 7.757576 9.309091 6.206061 12.412122l-40.339394 74.472727z" p-id="44281" fill="#bfbfbf"></path><path d="M812.993939 553.890909l-4.654545-1.551515c-6.206061-3.10303-10.860606-3.10303-12.412121 0l-3.103031 4.654545c1.551515-3.10303 6.206061-3.10303 12.412122 0l4.654545 1.551516c6.206061 3.10303 9.309091 7.757576 7.757576 9.30909l3.10303-4.654545c1.551515-1.551515-1.551515-6.206061-7.757576-9.309091z" fill="#bfbfbf" p-id="44282"></path><path d="M760.242424 591.127273c3.10303-7.757576 12.412121-10.860606 21.721212-7.757576s15.515152 12.412121 12.412122 20.169697c-3.10303 7.757576-12.412121 10.860606-21.721213 7.757576-9.309091-3.10303-15.515152-12.412121-12.412121-20.169697z" fill="#bfbfbf" p-id="44283"></path><path d="M204.8 572.509091c3.10303 7.757576 10.860606 10.860606 15.515152 7.757576l4.654545-1.551515c6.206061-3.10303 7.757576-10.860606 3.10303-18.618182l-77.575757-162.909091c-3.10303-7.757576-10.860606-10.860606-15.515152-7.757576l-3.10303 1.551515c-6.206061 3.10303-7.757576 10.860606-3.10303 18.618182l76.024242 162.909091z" fill="#bfbfbf" p-id="44284"></path><path d="M242.036364 648.533333c1.551515 4.654545 7.757576 6.206061 13.963636 3.103031l4.654545-1.551516c6.206061-3.10303 7.757576-7.757576 6.206061-12.412121l-35.684848-76.024242c-1.551515-4.654545-7.757576-6.206061-13.963637-3.10303l-4.654545 1.551515c-6.206061 3.10303-7.757576 7.757576-6.206061 12.412121l35.684849 76.024242z" p-id="44285" fill="#bfbfbf"></path><path d="M211.006061 556.993939l4.654545-1.551515c6.206061-3.10303 10.860606-3.10303 12.412121 0l1.551515 4.654546c-1.551515-3.10303-6.206061-3.10303-12.412121 0l-4.654545 1.551515c-6.206061 3.10303-9.309091 6.206061-7.757576 9.309091l-1.551515-4.654546c-1.551515-1.551515 1.551515-6.206061 7.757576-9.309091z" fill="#bfbfbf" p-id="44286"></path><path d="M265.309091 592.678788c3.10303 7.757576-3.10303 17.066667-12.412121 20.169697-9.309091 3.10303-20.169697 0-21.721212-7.757576-3.10303-7.757576 3.10303-17.066667 12.412121-20.169697 9.309091-1.551515 18.618182 1.551515 21.721212 7.757576z" fill="#bfbfbf" p-id="44287"></path><path d="M283.927273 369.260606c-3.10303 6.206061-12.412121 9.309091-18.618182 4.654546l-9.309091-4.654546c-7.757576-3.10303-9.309091-12.412121-6.206061-18.618182l83.781819-153.6c3.10303-6.206061 12.412121-9.309091 18.618181-4.654545l7.757576 4.654545c7.757576 3.10303 9.309091 10.860606 6.206061 18.618182-27.927273 85.333333-82.230303 153.6-82.230303 153.6z" fill="#bfbfbf" p-id="44288"></path><path d="M305.648485 282.375758c24.824242-46.545455 41.890909-86.884848 38.787879-91.539394-38.787879-21.721212-91.539394 0-117.915152 46.545454s-15.515152 103.951515 23.272727 125.672727c6.206061 1.551515 31.030303-34.133333 55.854546-80.678787z" fill="#bfbfbf" p-id="44289"></path><path d="M727.660606 369.260606c3.10303 6.206061 12.412121 9.309091 18.618182 6.206061l7.757576-4.654546c7.757576-3.10303 10.860606-12.412121 6.20606-18.618182l-79.127272-155.151515c-3.10303-6.206061-12.412121-9.309091-18.618182-6.20606l-7.757576 4.654545c-7.757576 3.10303-9.309091 10.860606-6.206061 18.618182 26.375758 85.333333 79.127273 155.151515 79.127273 155.151515z" fill="#bfbfbf" p-id="44290"></path><path d="M707.490909 282.375758c-24.824242-46.545455-40.339394-86.884848-35.684848-91.539394 40.339394-20.169697 91.539394 3.10303 116.363636 51.2 24.824242 48.09697 12.412121 103.951515-26.375758 124.121212-6.206061-1.551515-29.478788-37.236364-54.30303-83.781818z" fill="#bfbfbf" p-id="44291"></path><path d="M786.618182 262.206061s-29.478788-72.921212-63.612121-113.260606-367.709091-52.751515-423.563637 0-74.472727 113.260606-74.472727 113.260606v-17.066667s24.824242-71.369697 76.024242-113.260606 380.121212-38.787879 422.012122 0 63.612121 113.260606 63.612121 113.260606v17.066667z" fill="#bfbfbf" p-id="44292"></path><path d="M797.478788 237.381818c7.757576 13.963636 7.757576 27.927273 3.10303 31.030303-6.206061 3.10303-15.515152-6.206061-23.272727-20.169697s-7.757576-27.927273-3.10303-31.030303c4.654545-3.10303 15.515152 6.206061 23.272727 20.169697z m-578.715152-3.10303c7.757576-13.963636 18.618182-21.721212 23.272728-18.618182 6.206061 3.10303 4.654545 17.066667-3.103031 29.478788-7.757576 13.963636-18.618182 21.721212-23.272727 18.618182-6.206061-1.551515-4.654545-15.515152 3.10303-29.478788z" fill="#bfbfbf" p-id="44293"></path><path d="M660.945455 246.690909H349.090909c-55.854545 0-55.854545 148.945455-3.10303 156.70303l108.60606-6.20606c12.412121 0 38.787879-51.2 44.99394-54.303031s21.721212-4.654545 27.927273 0c6.206061 4.654545 20.169697 49.648485 34.133333 49.648485l108.60606 12.412122c49.648485-24.824242 37.236364-158.254545-9.30909-158.254546z" fill="#bfbfbf" opacity=".6" p-id="44294"></path><path d="M432.872727 276.169697h-117.915151c-4.654545 15.515152-10.860606 37.236364-7.757576 55.854545h125.672727c24.824242 0 44.993939 4.654545 65.163637 9.309091 0 0 0-1.551515 1.551515-1.551515 4.654545-4.654545 21.721212-4.654545 27.927273 0 1.551515 1.551515 3.10303 4.654545 6.20606 10.860606 9.309091 1.551515 20.169697 3.10303 29.478788 3.103031h136.533333c4.654545-18.618182 1.551515-37.236364 0-55.854546-41.890909 0-107.054545-1.551515-138.084848-1.551515-44.993939 3.10303-83.781818-18.618182-128.775758-20.169697z" fill="#bfbfbf" opacity=".5" p-id="44295"></path><path d="M479.418182 370.812121c-1.551515-32.581818 60.509091-35.684848 66.715151-9.309091s-63.612121 34.133333-66.715151 9.309091c-3.10303-18.618182 0 0 0 0z" p-id="44296" fill="#bfbfbf"></path></svg>